0
SECTION
2
HEADER
9
$ANGDIR
70
1
9
$AUNITS
70
0
9
$PROJECTNAME
1
orao-keyboard-routed
9
$TDCREATE
40
2459475.52446314
9
$INSUNITS
70
4
0
ENDSEC
0
SECTION
2
ENTITIES
0
POLYLINE
66
1
8
outline
10
0.0
20
0.0
30
0.0
70
1
0
VERTEX
8
0
10
-3.1750000000000003
20
-2.54
30
0
0
VERTEX
8
0
10
55.225
20
-2.54
30
0
0
VERTEX
8
0
10
55.225
20
56.82
30
0
0
VERTEX
8
0
10
-3.1750000000000003
20
56.82
30
0
0
VERTEX
8
0
10
-3.1750000000000003
20
-2.54
30
0
0
SEQEND
0
POLYLINE
66
1
8
1_copper
10
0.0
20
0.0
30
0.0
70
1
0
VERTEX
8
0
10
22.98241875
20
37.445959375
30
0
42
0.9063462356499619
0
VERTEX
8
0
10
22.91784375
20
38.760400000000004
30
0
0
VERTEX
8
0
10
21.53215625
20
38.760400000000004
30
0
0
VERTEX
8
0
10
21.467581250000002
20
38.754040625
30
0
42
0.9063462356499619
0
VERTEX
8
0
10
21.53215625
20
37.4396
30
0
0
VERTEX
8
0
10
22.91784375
20
37.4396
30
0
0
SEQEND
0
POLYLINE
66
1
8
1_copper
10
0.0
20
0.0
30
0.0
70
1
0
VERTEX
8
0
10
38.22241875
20
37.445959375
30
0
42
0.9063462356499619
0
VERTEX
8
0
10
38.157843750000005
20
38.760400000000004
30
0
0
VERTEX
8
0
10
36.77215625
20
38.760400000000004
30
0
0
VERTEX
8
0
10
36.707581250000004
20
38.754040625
30
0
42
0.9063462356499619
0
VERTEX
8
0
10
36.77215625
20
37.4396
30
0
0
VERTEX
8
0
10
38.157843750000005
20
37.4396
30
0
0
SEQEND
0
POLYLINE
66
1
8
1_copper
10
0.0
20
0.0
30
0.0
70
1
0
VERTEX
8
0
10
22.98241875
20
34.905959375
30
0
42
0.9063462356499619
0
VERTEX
8
0
10
22.91784375
20
36.220400000000005
30
0
0
VERTEX
8
0
10
21.53215625
20
36.220400000000005
30
0
0
VERTEX
8
0
10
21.467581250000002
20
36.214040625
30
0
42
0.9063462356499619
0
VERTEX
8
0
10
21.53215625
20
34.8996
30
0
0
VERTEX
8
0
10
22.91784375
20
34.8996
30
0
0
SEQEND
0
POLYLINE
66
1
8
1_copper
10
0.0
20
0.0
30
0.0
70
1
0
VERTEX
8
0
10
38.22241875
20
34.905959375
30
0
42
0.9063462356499619
0
VERTEX
8
0
10
38.157843750000005
20
36.220400000000005
30
0
0
VERTEX
8
0
10
36.77215625
20
36.220400000000005
30
0
0
VERTEX
8
0
10
36.707581250000004
20
36.214040625
30
0
42
0.9063462356499619
0
VERTEX
8
0
10
36.77215625
20
34.8996
30
0
0
VERTEX
8
0
10
38.157843750000005
20
34.8996
30
0
0
SEQEND
0
POLYLINE
66
1
8
1_copper
10
0.0
20
0.0
30
0.0
70
1
0
VERTEX
8
0
10
22.98241875
20
22.205959375000003
30
0
42
0.9063462356499619
0
VERTEX
8
0
10
22.91784375
20
23.520400000000002
30
0
0
VERTEX
8
0
10
21.53215625
20
23.520400000000002
30
0
0
VERTEX
8
0
10
21.467581250000002
20
23.514040625
30
0
42
0.9063462356499619
0
VERTEX
8
0
10
21.53215625
20
22.1996
30
0
0
VERTEX
8
0
10
22.91784375
20
22.1996
30
0
0
SEQEND
0
POLYLINE
66
1
8
1_copper
10
0.0
20
0.0
30
0.0
70
1
0
VERTEX
8
0
10
22.98241875
20
19.665959375
30
0
42
0.9063462356499619
0
VERTEX
8
0
10
22.91784375
20
20.9804
30
0
0
VERTEX
8
0
10
21.53215625
20
20.9804
30
0
0
VERTEX
8
0
10
21.467581250000002
20
20.974040625
30
0
42
0.9063462356499619
0
VERTEX
8
0
10
21.53215625
20
19.6596
30
0
0
VERTEX
8
0
10
22.91784375
20
19.6596
30
0
0
SEQEND
0
POLYLINE
66
1
8
1_copper
10
0.0
20
0.0
30
0.0
70
1
0
VERTEX
8
0
10
22.98241875
20
17.125959375
30
0
42
0.9063462356499619
0
VERTEX
8
0
10
22.91784375
20
18.4404
30
0
0
VERTEX
8
0
10
21.53215625
20
18.4404
30
0
0
VERTEX
8
0
10
21.467581250000002
20
18.434040625
30
0
42
0.9063462356499619
0
VERTEX
8
0
10
21.53215625
20
17.119600000000002
30
0
0
VERTEX
8
0
10
22.91784375
20
17.119600000000002
30
0
0
SEQEND
0
POLYLINE
66
1
8
1_copper
10
0.0
20
0.0
30
0.0
70
1
0
VERTEX
8
0
10
38.22241875
20
17.125959375
30
0
42
0.9063462356499619
0
VERTEX
8
0
10
38.157843750000005
20
18.4404
30
0
0
VERTEX
8
0
10
36.77215625
20
18.4404
30
0
0
VERTEX
8
0
10
36.707581250000004
20
18.434040625
30
0
42
0.9063462356499619
0
VERTEX
8
0
10
36.77215625
20
17.119600000000002
30
0
0
VERTEX
8
0
10
38.157843750000005
20
17.119600000000002
30
0
0
SEQEND
0
POLYLINE
66
1
8
1_copper
10
0.0
20
0.0
30
0.0
70
1
0
VERTEX
8
0
10
22.98241875
20
14.585959375
30
0
42
0.9063462356499619
0
VERTEX
8
0
10
22.91784375
20
15.900400000000001
30
0
0
VERTEX
8
0
10
21.53215625
20
15.900400000000001
30
0
0
VERTEX
8
0
10
21.467581250000002
20
15.894040625
30
0
42
0.9063462356499619
0
VERTEX
8
0
10
21.53215625
20
14.579600000000001
30
0
0
VERTEX
8
0
10
22.91784375
20
14.579600000000001
30
0
0
SEQEND
0
POLYLINE
66
1
8
1_copper
10
0.0
20
0.0
30
0.0
70
1
0
VERTEX
8
0
10
38.22241875
20
14.585959375
30
0
42
0.9063462356499619
0
VERTEX
8
0
10
38.157843750000005
20
15.900400000000001
30
0
0
VERTEX
8
0
10
36.77215625
20
15.900400000000001
30
0
0
VERTEX
8
0
10
36.707581250000004
20
15.894040625
30
0
42
0.9063462356499619
0
VERTEX
8
0
10
36.77215625
20
14.579600000000001
30
0
0
VERTEX
8
0
10
38.157843750000005
20
14.579600000000001
30
0
0
SEQEND
0
POLYLINE
66
1
8
1_copper
10
0.0
20
0.0
30
0.0
70
1
0
VERTEX
8
0
10
6.836200000000001
20
9.1304125
30
0
0
VERTEX
8
0
10
6.836200000000001
20
9.719587500000001
30
0
0
VERTEX
8
0
10
6.4195875000000004
20
10.1362
30
0
0
VERTEX
8
0
10
5.8304125
20
10.1362
30
0
0
VERTEX
8
0
10
5.4138
20
9.719587500000001
30
0
0
VERTEX
8
0
10
5.4138
20
9.1304125
30
0
0
VERTEX
8
0
10
5.8304125
20
8.7138
30
0
0
VERTEX
8
0
10
6.4195875000000004
20
8.7138
30
0
0
SEQEND
0
POLYLINE
66
1
8
1_copper
10
0.0
20
0.0
30
0.0
70
1
0
VERTEX
8
0
10
8.936200000000001
20
6.6304125
30
0
0
VERTEX
8
0
10
8.936200000000001
20
7.2195875
30
0
0
VERTEX
8
0
10
8.5195875
20
7.6362000000000005
30
0
0
VERTEX
8
0
10
7.9304125
20
7.6362000000000005
30
0
0
VERTEX
8
0
10
7.513800000000001
20
7.2195875
30
0
0
VERTEX
8
0
10
7.513800000000001
20
6.6304125
30
0
0
VERTEX
8
0
10
7.9304125
20
6.2138
30
0
0
VERTEX
8
0
10
8.5195875
20
6.2138
30
0
0
SEQEND
0
POLYLINE
66
1
8
16_copper
10
0.0
20
0.0
30
0.0
70
1
0
VERTEX
8
0
10
22.98241875
20
37.445959375
30
0
42
0.9063462356499619
0
VERTEX
8
0
10
22.91784375
20
38.760400000000004
30
0
0
VERTEX
8
0
10
21.53215625
20
38.760400000000004
30
0
0
VERTEX
8
0
10
21.467581250000002
20
38.754040625
30
0
42
0.9063462356499619
0
VERTEX
8
0
10
21.53215625
20
37.4396
30
0
0
VERTEX
8
0
10
22.91784375
20
37.4396
30
0
0
SEQEND
0
POLYLINE
66
1
8
16_copper
10
0.0
20
0.0
30
0.0
70
1
0
VERTEX
8
0
10
38.22241875
20
37.445959375
30
0
42
0.9063462356499619
0
VERTEX
8
0
10
38.157843750000005
20
38.760400000000004
30
0
0
VERTEX
8
0
10
36.77215625
20
38.760400000000004
30
0
0
VERTEX
8
0
10
36.707581250000004
20
38.754040625
30
0
42
0.9063462356499619
0
VERTEX
8
0
10
36.77215625
20
37.4396
30
0
0
VERTEX
8
0
10
38.157843750000005
20
37.4396
30
0
0
SEQEND
0
POLYLINE
66
1
8
16_copper
10
0.0
20
0.0
30
0.0
70
1
0
VERTEX
8
0
10
22.98241875
20
34.905959375
30
0
42
0.9063462356499619
0
VERTEX
8
0
10
22.91784375
20
36.220400000000005
30
0
0
VERTEX
8
0
10
21.53215625
20
36.220400000000005
30
0
0
VERTEX
8
0
10
21.467581250000002
20
36.214040625
30
0
42
0.9063462356499619
0
VERTEX
8
0
10
21.53215625
20
34.8996
30
0
0
VERTEX
8
0
10
22.91784375
20
34.8996
30
0
0
SEQEND
0
POLYLINE
66
1
8
16_copper
10
0.0
20
0.0
30
0.0
70
1
0
VERTEX
8
0
10
38.22241875
20
34.905959375
30
0
42
0.9063462356499619
0
VERTEX
8
0
10
38.157843750000005
20
36.220400000000005
30
0
0
VERTEX
8
0
10
36.77215625
20
36.220400000000005
30
0
0
VERTEX
8
0
10
36.707581250000004
20
36.214040625
30
0
42
0.9063462356499619
0
VERTEX
8
0
10
36.77215625
20
34.8996
30
0
0
VERTEX
8
0
10
38.157843750000005
20
34.8996
30
0
0
SEQEND
0
POLYLINE
66
1
8
16_copper
10
0.0
20
0.0
30
0.0
70
1
0
VERTEX
8
0
10
22.98241875
20
22.205959375000003
30
0
42
0.9063462356499619
0
VERTEX
8
0
10
22.91784375
20
23.520400000000002
30
0
0
VERTEX
8
0
10
21.53215625
20
23.520400000000002
30
0
0
VERTEX
8
0
10
21.467581250000002
20
23.514040625
30
0
42
0.9063462356499619
0
VERTEX
8
0
10
21.53215625
20
22.1996
30
0
0
VERTEX
8
0
10
22.91784375
20
22.1996
30
0
0
SEQEND
0
POLYLINE
66
1
8
16_copper
10
0.0
20
0.0
30
0.0
70
1
0
VERTEX
8
0
10
22.98241875
20
19.665959375
30
0
42
0.9063462356499619
0
VERTEX
8
0
10
22.91784375
20
20.9804
30
0
0
VERTEX
8
0
10
21.53215625
20
20.9804
30
0
0
VERTEX
8
0
10
21.467581250000002
20
20.974040625
30
0
42
0.9063462356499619
0
VERTEX
8
0
10
21.53215625
20
19.6596
30
0
0
VERTEX
8
0
10
22.91784375
20
19.6596
30
0
0
SEQEND
0
POLYLINE
66
1
8
16_copper
10
0.0
20
0.0
30
0.0
70
1
0
VERTEX
8
0
10
22.98241875
20
17.125959375
30
0
42
0.9063462356499619
0
VERTEX
8
0
10
22.91784375
20
18.4404
30
0
0
VERTEX
8
0
10
21.53215625
20
18.4404
30
0
0
VERTEX
8
0
10
21.467581250000002
20
18.434040625
30
0
42
0.9063462356499619
0
VERTEX
8
0
10
21.53215625
20
17.119600000000002
30
0
0
VERTEX
8
0
10
22.91784375
20
17.119600000000002
30
0
0
SEQEND
0
POLYLINE
66
1
8
16_copper
10
0.0
20
0.0
30
0.0
70
1
0
VERTEX
8
0
10
38.22241875
20
17.125959375
30
0
42
0.9063462356499619
0
VERTEX
8
0
10
38.157843750000005
20
18.4404
30
0
0
VERTEX
8
0
10
36.77215625
20
18.4404
30
0
0
VERTEX
8
0
10
36.707581250000004
20
18.434040625
30
0
42
0.9063462356499619
0
VERTEX
8
0
10
36.77215625
20
17.119600000000002
30
0
0
VERTEX
8
0
10
38.157843750000005
20
17.119600000000002
30
0
0
SEQEND
0
POLYLINE
66
1
8
16_copper
10
0.0
20
0.0
30
0.0
70
1
0
VERTEX
8
0
10
22.98241875
20
14.585959375
30
0
42
0.9063462356499619
0
VERTEX
8
0
10
22.91784375
20
15.900400000000001
30
0
0
VERTEX
8
0
10
21.53215625
20
15.900400000000001
30
0
0
VERTEX
8
0
10
21.467581250000002
20
15.894040625
30
0
42
0.9063462356499619
0
VERTEX
8
0
10
21.53215625
20
14.579600000000001
30
0
0
VERTEX
8
0
10
22.91784375
20
14.579600000000001
30
0
0
SEQEND
0
POLYLINE
66
1
8
16_copper
10
0.0
20
0.0
30
0.0
70
1
0
VERTEX
8
0
10
38.22241875
20
14.585959375
30
0
42
0.9063462356499619
0
VERTEX
8
0
10
38.157843750000005
20
15.900400000000001
30
0
0
VERTEX
8
0
10
36.77215625
20
15.900400000000001
30
0
0
VERTEX
8
0
10
36.707581250000004
20
15.894040625
30
0
42
0.9063462356499619
0
VERTEX
8
0
10
36.77215625
20
14.579600000000001
30
0
0
VERTEX
8
0
10
38.157843750000005
20
14.579600000000001
30
0
0
SEQEND
0
POLYLINE
66
1
8
16_copper
10
0.0
20
0.0
30
0.0
70
1
0
VERTEX
8
0
10
6.836200000000001
20
9.1304125
30
0
0
VERTEX
8
0
10
6.836200000000001
20
9.719587500000001
30
0
0
VERTEX
8
0
10
6.4195875000000004
20
10.1362
30
0
0
VERTEX
8
0
10
5.8304125
20
10.1362
30
0
0
VERTEX
8
0
10
5.4138
20
9.719587500000001
30
0
0
VERTEX
8
0
10
5.4138
20
9.1304125
30
0
0
VERTEX
8
0
10
5.8304125
20
8.7138
30
0
0
VERTEX
8
0
10
6.4195875000000004
20
8.7138
30
0
0
SEQEND
0
POLYLINE
66
1
8
16_copper
10
0.0
20
0.0
30
0.0
70
1
0
VERTEX
8
0
10
8.936200000000001
20
6.6304125
30
0
0
VERTEX
8
0
10
8.936200000000001
20
7.2195875
30
0
0
VERTEX
8
0
10
8.5195875
20
7.6362000000000005
30
0
0
VERTEX
8
0
10
7.9304125
20
7.6362000000000005
30
0
0
VERTEX
8
0
10
7.513800000000001
20
7.2195875
30
0
0
VERTEX
8
0
10
7.513800000000001
20
6.6304125
30
0
0
VERTEX
8
0
10
7.9304125
20
6.2138
30
0
0
VERTEX
8
0
10
8.5195875
20
6.2138
30
0
0
SEQEND
0
POLYLINE
66
1
8
1_copper
10
0.0
20
0.0
30
0.0
70
1
0
VERTEX
8
0
10
22.98241875
20
1.885959375
30
0
42
0.9063462356499619
0
VERTEX
8
0
10
22.91784375
20
3.2004
30
0
0
VERTEX
8
0
10
21.53215625
20
3.2004
30
0
0
VERTEX
8
0
10
21.467581250000002
20
3.194040625
30
0
42
0.9063462356499619
0
VERTEX
8
0
10
21.53215625
20
1.8796000000000002
30
0
0
VERTEX
8
0
10
22.91784375
20
1.8796000000000002
30
0
0
SEQEND
0
POLYLINE
66
1
8
16_copper
10
0.0
20
0.0
30
0.0
70
1
0
VERTEX
8
0
10
22.98241875
20
1.885959375
30
0
42
0.9063462356499619
0
VERTEX
8
0
10
22.91784375
20
3.2004
30
0
0
VERTEX
8
0
10
21.53215625
20
3.2004
30
0
0
VERTEX
8
0
10
21.467581250000002
20
3.194040625
30
0
42
0.9063462356499619
0
VERTEX
8
0
10
21.53215625
20
1.8796000000000002
30
0
0
VERTEX
8
0
10
22.91784375
20
1.8796000000000002
30
0
0
SEQEND
0
POLYLINE
66
1
8
1_copper
10
0.0
20
0.0
30
0.0
70
1
0
VERTEX
8
0
10
13.6362
20
9.0804125
30
0
0
VERTEX
8
0
10
13.6362
20
9.6695875
30
0
0
VERTEX
8
0
10
13.219587500000001
20
10.0862
30
0
0
VERTEX
8
0
10
13.0175
20
10.0862
30
0
0
VERTEX
8
0
10
13.0175
20
19.9127
30
0
0
VERTEX
8
0
10
17.1899
20
24.0851
30
0
0
VERTEX
8
0
10
17.192815625
20
24.089112500000002
30
0
42
0.17873043370239752
0
VERTEX
8
0
10
17.2085
20
24.130000000000003
30
0
0
VERTEX
8
0
10
17.2085
20
25.400000000000002
30
0
0
VERTEX
8
0
10
17.205393750000002
20
25.419615625000002
30
0
42
0.8541292147630184
0
VERTEX
8
0
10
17.081500000000002
20
25.400000000000002
30
0
0
VERTEX
8
0
10
17.081500000000002
20
24.1563
30
0
0
VERTEX
8
0
10
12.9091
20
19.983900000000002
30
0
0
VERTEX
8
0
10
12.906184375
20
19.9798875
30
0
42
0.17873043370239752
0
VERTEX
8
0
10
12.890500000000001
20
19.939
30
0
0
VERTEX
8
0
10
12.890500000000001
20
10.0862
30
0
0
VERTEX
8
0
10
12.6304125
20
10.0862
30
0
0
VERTEX
8
0
10
12.2138
20
9.6695875
30
0
0
VERTEX
8
0
10
12.2138
20
9.0804125
30
0
0
VERTEX
8
0
10
12.6304125
20
8.6638
30
0
0
VERTEX
8
0
10
13.219587500000001
20
8.6638
30
0
0
SEQEND
0
POLYLINE
66
1
8
16_copper
10
0.0
20
0.0
30
0.0
70
1
0
VERTEX
8
0
10
13.6362
20
9.0804125
30
0
0
VERTEX
8
0
10
13.6362
20
9.6695875
30
0
0
VERTEX
8
0
10
13.219587500000001
20
10.0862
30
0
0
VERTEX
8
0
10
12.6304125
20
10.0862
30
0
0
VERTEX
8
0
10
12.2138
20
9.6695875
30
0
0
VERTEX
8
0
10
12.2138
20
9.0804125
30
0
0
VERTEX
8
0
10
12.6304125
20
8.6638
30
0
0
VERTEX
8
0
10
13.219587500000001
20
8.6638
30
0
0
SEQEND
0
POLYLINE
66
1
8
1_copper
10
0.0
20
0.0
30
0.0
70
1
0
VERTEX
8
0
10
11.536200000000001
20
6.6304125
30
0
0
VERTEX
8
0
10
11.536200000000001
20
7.2195875
30
0
0
VERTEX
8
0
10
11.1195875
20
7.6362000000000005
30
0
0
VERTEX
8
0
10
10.9855
20
7.6362000000000005
30
0
0
VERTEX
8
0
10
10.9855
20
20.4207
30
0
0
VERTEX
8
0
10
17.1899
20
26.6251
30
0
0
VERTEX
8
0
10
17.192815625
20
26.6291125
30
0
42
0.17873043370239752
0
VERTEX
8
0
10
17.2085
20
26.67
30
0
0
VERTEX
8
0
10
17.2085
20
27.94
30
0
0
VERTEX
8
0
10
17.205393750000002
20
27.959615625
30
0
42
0.8541292147630184
0
VERTEX
8
0
10
17.081500000000002
20
27.94
30
0
0
VERTEX
8
0
10
17.081500000000002
20
26.6963
30
0
0
VERTEX
8
0
10
10.8771
20
20.4919
30
0
0
VERTEX
8
0
10
10.874184375
20
20.4878875
30
0
42
0.17873043370239752
0
VERTEX
8
0
10
10.858500000000001
20
20.447000000000003
30
0
0
VERTEX
8
0
10
10.858500000000001
20
7.6362000000000005
30
0
0
VERTEX
8
0
10
10.5304125
20
7.6362000000000005
30
0
0
VERTEX
8
0
10
10.113800000000001
20
7.2195875
30
0
0
VERTEX
8
0
10
10.113800000000001
20
6.6304125
30
0
0
VERTEX
8
0
10
10.5304125
20
6.2138
30
0
0
VERTEX
8
0
10
11.1195875
20
6.2138
30
0
0
SEQEND
0
POLYLINE
66
1
8
16_copper
10
0.0
20
0.0
30
0.0
70
1
0
VERTEX
8
0
10
11.536200000000001
20
6.6304125
30
0
0
VERTEX
8
0
10
11.536200000000001
20
7.2195875
30
0
0
VERTEX
8
0
10
11.1195875
20
7.6362000000000005
30
0
0
VERTEX
8
0
10
10.5304125
20
7.6362000000000005
30
0
0
VERTEX
8
0
10
10.113800000000001
20
7.2195875
30
0
0
VERTEX
8
0
10
10.113800000000001
20
6.6304125
30
0
0
VERTEX
8
0
10
10.5304125
20
6.2138
30
0
0
VERTEX
8
0
10
11.1195875
20
6.2138
30
0
0
SEQEND
0
POLYLINE
66
1
8
1_copper
10
0.0
20
0.0
30
0.0
70
1
0
VERTEX
8
0
10
13.6362
20
6.6304125
30
0
0
VERTEX
8
0
10
13.6362
20
7.2195875
30
0
0
VERTEX
8
0
10
13.45729375
20
7.39849375
30
0
0
VERTEX
8
0
10
13.8879
20
7.8291
30
0
0
VERTEX
8
0
10
13.890815625
20
7.8331125
30
0
42
0.17873043370239752
0
VERTEX
8
0
10
13.906500000000001
20
7.8740000000000006
30
0
0
VERTEX
8
0
10
13.906500000000001
20
18.2617
30
0
0
VERTEX
8
0
10
17.1899
20
21.5451
30
0
0
VERTEX
8
0
10
17.192815625
20
21.5491125
30
0
42
0.17873043370239752
0
VERTEX
8
0
10
17.2085
20
21.59
30
0
0
VERTEX
8
0
10
17.2085
20
22.86
30
0
0
VERTEX
8
0
10
17.205393750000002
20
22.879615625
30
0
42
0.8541292147630184
0
VERTEX
8
0
10
17.081500000000002
20
22.86
30
0
0
VERTEX
8
0
10
17.081500000000002
20
21.616300000000003
30
0
0
VERTEX
8
0
10
13.7981
20
18.332900000000002
30
0
0
VERTEX
8
0
10
13.795184375
20
18.3288875
30
0
42
0.17873043370239752
0
VERTEX
8
0
10
13.7795
20
18.288
30
0
0
VERTEX
8
0
10
13.7795
20
7.9003000000000005
30
0
0
VERTEX
8
0
10
13.367493750000001
20
7.48829375
30
0
0
VERTEX
8
0
10
13.219587500000001
20
7.6362000000000005
30
0
0
VERTEX
8
0
10
12.6304125
20
7.6362000000000005
30
0
0
VERTEX
8
0
10
12.2138
20
7.2195875
30
0
0
VERTEX
8
0
10
12.2138
20
6.6304125
30
0
0
VERTEX
8
0
10
12.6304125
20
6.2138
30
0
0
VERTEX
8
0
10
13.219587500000001
20
6.2138
30
0
0
SEQEND
0
POLYLINE
66
1
8
16_copper
10
0.0
20
0.0
30
0.0
70
1
0
VERTEX
8
0
10
13.6362
20
6.6304125
30
0
0
VERTEX
8
0
10
13.6362
20
7.2195875
30
0
0
VERTEX
8
0
10
13.219587500000001
20
7.6362000000000005
30
0
0
VERTEX
8
0
10
12.6304125
20
7.6362000000000005
30
0
0
VERTEX
8
0
10
12.2138
20
7.2195875
30
0
0
VERTEX
8
0
10
12.2138
20
6.6304125
30
0
0
VERTEX
8
0
10
12.6304125
20
6.2138
30
0
0
VERTEX
8
0
10
13.219587500000001
20
6.2138
30
0
0
SEQEND
0
POLYLINE
66
1
8
1_copper
10
0.0
20
0.0
30
0.0
70
1
0
VERTEX
8
0
10
45.78741875
20
27.580959375000003
30
0
42
0.9063462356499619
0
VERTEX
8
0
10
45.72284375
20
28.895400000000002
30
0
0
VERTEX
8
0
10
45.0215
20
28.895400000000002
30
0
0
VERTEX
8
0
10
45.0215
20
35.433
30
0
0
VERTEX
8
0
10
45.020721875
20
35.437903125
30
0
42
0.1787130343549712
0
VERTEX
8
0
10
45.002900000000004
20
35.4779
30
0
0
VERTEX
8
0
10
37.961200000000005
20
42.519600000000004
30
0
0
VERTEX
8
0
10
38.157843750000005
20
42.519600000000004
30
0
42
0.9520786018124834
0
VERTEX
8
0
10
38.157843750000005
20
43.8404
30
0
0
VERTEX
8
0
10
36.77215625
20
43.8404
30
0
0
VERTEX
8
0
10
36.707581250000004
20
43.834040625
30
0
42
0.9063462356499619
0
VERTEX
8
0
10
36.77215625
20
42.519600000000004
30
0
0
VERTEX
8
0
10
37.781600000000005
20
42.519600000000004
30
0
0
VERTEX
8
0
10
44.8945
20
35.4067
30
0
0
VERTEX
8
0
10
44.8945
20
28.895400000000002
30
0
0
VERTEX
8
0
10
44.33715625
20
28.895400000000002
30
0
0
VERTEX
8
0
10
44.27258125
20
28.889040625
30
0
42
0.9063462356499619
0
VERTEX
8
0
10
44.33715625
20
27.5746
30
0
0
VERTEX
8
0
10
45.72284375
20
27.5746
30
0
0
SEQEND
0
POLYLINE
66
1
8
16_copper
10
0.0
20
0.0
30
0.0
70
1
0
VERTEX
8
0
10
38.22241875
20
42.525959375
30
0
42
0.9063462356499619
0
VERTEX
8
0
10
38.157843750000005
20
43.8404
30
0
0
VERTEX
8
0
10
36.77215625
20
43.8404
30
0
0
VERTEX
8
0
10
36.707581250000004
20
43.834040625
30
0
42
0.9063462356499619
0
VERTEX
8
0
10
36.77215625
20
42.519600000000004
30
0
0
VERTEX
8
0
10
38.157843750000005
20
42.519600000000004
30
0
0
SEQEND
0
POLYLINE
66
1
8
16_copper
10
0.0
20
0.0
30
0.0
70
1
0
VERTEX
8
0
10
45.78741875
20
27.580959375000003
30
0
42
0.9063462356499619
0
VERTEX
8
0
10
45.72284375
20
28.895400000000002
30
0
0
VERTEX
8
0
10
44.33715625
20
28.895400000000002
30
0
0
VERTEX
8
0
10
44.27258125
20
28.889040625
30
0
42
0.9063462356499619
0
VERTEX
8
0
10
44.33715625
20
27.5746
30
0
0
VERTEX
8
0
10
45.72284375
20
27.5746
30
0
0
SEQEND
0
POLYLINE
66
1
8
1_copper
10
0.0
20
0.0
30
0.0
70
1
0
VERTEX
8
0
10
45.78741875
20
25.040959375
30
0
42
0.9063462356499619
0
VERTEX
8
0
10
45.72284375
20
26.3554
30
0
0
VERTEX
8
0
10
44.473400000000005
20
26.3554
30
0
0
VERTEX
8
0
10
39.4149
20
31.4139
30
0
0
VERTEX
8
0
10
39.4108875
20
31.416815625
30
0
42
0.17873043370239752
0
VERTEX
8
0
10
39.370000000000005
20
31.4325
30
0
0
VERTEX
8
0
10
37.237300000000005
20
31.4325
30
0
0
VERTEX
8
0
10
36.0045
20
32.6653
30
0
0
VERTEX
8
0
10
36.0045
20
33.374700000000004
30
0
0
VERTEX
8
0
10
36.475300000000004
20
33.8455
30
0
0
VERTEX
8
0
10
37.719
20
33.8455
30
0
0
VERTEX
8
0
10
37.723903125
20
33.846278125000005
30
0
42
0.1787130343549712
0
VERTEX
8
0
10
37.7639
20
33.8641
30
0
0
VERTEX
8
0
10
39.0339
20
35.134100000000004
30
0
0
VERTEX
8
0
10
39.036815625
20
35.1381125
30
0
42
0.17873043370239752
0
VERTEX
8
0
10
39.0525
20
35.179
30
0
0
VERTEX
8
0
10
39.0525
20
41.021
30
0
0
VERTEX
8
0
10
39.051721875
20
41.025903125
30
0
42
0.1787130343549712
0
VERTEX
8
0
10
39.0339
20
41.0659
30
0
0
VERTEX
8
0
10
38.5259
20
41.5739
30
0
0
VERTEX
8
0
10
38.521887500000005
20
41.576815625
30
0
42
0.17873043370239752
0
VERTEX
8
0
10
38.481
20
41.5925
30
0
0
VERTEX
8
0
10
37.237300000000005
20
41.5925
30
0
0
VERTEX
8
0
10
36.0045
20
42.8253
30
0
0
VERTEX
8
0
10
36.0045
20
46.0747
30
0
0
VERTEX
8
0
10
37.5099
20
47.5801
30
0
0
VERTEX
8
0
10
37.512815625
20
47.5841125
30
0
42
0.05909389432932328
0
VERTEX
8
0
10
37.521575
20
47.596165625000005
30
0
0
VERTEX
8
0
10
37.522690625
20
47.5996
30
0
0
VERTEX
8
0
10
38.157843750000005
20
47.5996
30
0
0
VERTEX
8
0
10
38.22241875
20
47.605959375000005
30
0
42
0.9063462356499619
0
VERTEX
8
0
10
38.157843750000005
20
48.9204
30
0
0
VERTEX
8
0
10
36.77215625
20
48.9204
30
0
0
VERTEX
8
0
10
36.707581250000004
20
48.914040625000005
30
0
42
0.9063462356499619
0
VERTEX
8
0
10
36.77215625
20
47.5996
30
0
0
VERTEX
8
0
10
37.3498
20
47.5996
30
0
0
VERTEX
8
0
10
35.896100000000004
20
46.145900000000005
30
0
0
VERTEX
8
0
10
35.893184375000004
20
46.1418875
30
0
42
0.17873043370239752
0
VERTEX
8
0
10
35.877500000000005
20
46.101
30
0
0
VERTEX
8
0
10
35.877500000000005
20
42.799
30
0
0
VERTEX
8
0
10
35.878278125
20
42.794096875
30
0
42
0.1787130343549712
0
VERTEX
8
0
10
35.896100000000004
20
42.7541
30
0
0
VERTEX
8
0
10
37.1661
20
41.484100000000005
30
0
0
VERTEX
8
0
10
37.1701125
20
41.481184375000005
30
0
42
0.17873043370239752
0
VERTEX
8
0
10
37.211
20
41.4655
30
0
0
VERTEX
8
0
10
38.4547
20
41.4655
30
0
0
VERTEX
8
0
10
38.9255
20
40.9947
30
0
0
VERTEX
8
0
10
38.9255
20
35.2053
30
0
0
VERTEX
8
0
10
37.6927
20
33.972500000000004
30
0
0
VERTEX
8
0
10
36.449000000000005
20
33.972500000000004
30
0
0
VERTEX
8
0
10
36.444096875
20
33.971721875
30
0
42
0.1787130343549712
0
VERTEX
8
0
10
36.4041
20
33.953900000000004
30
0
0
VERTEX
8
0
10
35.896100000000004
20
33.4459
30
0
0
VERTEX
8
0
10
35.893184375000004
20
33.4418875
30
0
42
0.17873043370239752
0
VERTEX
8
0
10
35.877500000000005
20
33.401
30
0
0
VERTEX
8
0
10
35.877500000000005
20
32.639
30
0
0
VERTEX
8
0
10
35.878278125
20
32.634096875000004
30
0
42
0.1787130343549712
0
VERTEX
8
0
10
35.896100000000004
20
32.594100000000005
30
0
0
VERTEX
8
0
10
37.1661
20
31.3241
30
0
0
VERTEX
8
0
10
37.1701125
20
31.321184375
30
0
42
0.17873043370239752
0
VERTEX
8
0
10
37.211
20
31.305500000000002
30
0
0
VERTEX
8
0
10
39.3437
20
31.305500000000002
30
0
0
VERTEX
8
0
10
44.2976875
20
26.351512500000002
30
0
0
VERTEX
8
0
10
44.27258125
20
26.349040625
30
0
42
0.9063462356499619
0
VERTEX
8
0
10
44.33715625
20
25.0346
30
0
0
VERTEX
8
0
10
45.72284375
20
25.0346
30
0
0
SEQEND
0
POLYLINE
66
1
8
16_copper
10
0.0
20
0.0
30
0.0
70
1
0
VERTEX
8
0
10
38.22241875
20
47.605959375000005
30
0
42
0.9063462356499619
0
VERTEX
8
0
10
38.157843750000005
20
48.9204
30
0
0
VERTEX
8
0
10
36.77215625
20
48.9204
30
0
0
VERTEX
8
0
10
36.707581250000004
20
48.914040625000005
30
0
42
0.9063462356499619
0
VERTEX
8
0
10
36.77215625
20
47.5996
30
0
0
VERTEX
8
0
10
38.157843750000005
20
47.5996
30
0
0
SEQEND
0
POLYLINE
66
1
8
16_copper
10
0.0
20
0.0
30
0.0
70
1
0
VERTEX
8
0
10
45.78741875
20
25.040959375
30
0
42
0.9063462356499619
0
VERTEX
8
0
10
45.72284375
20
26.3554
30
0
0
VERTEX
8
0
10
44.33715625
20
26.3554
30
0
0
VERTEX
8
0
10
44.27258125
20
26.349040625
30
0
42
0.9063462356499619
0
VERTEX
8
0
10
44.33715625
20
25.0346
30
0
0
VERTEX
8
0
10
45.72284375
20
25.0346
30
0
0
SEQEND
0
POLYLINE
66
1
8
1_copper
10
0.0
20
0.0
30
0.0
70
1
0
VERTEX
8
0
10
22.98241875
20
50.145959375000004
30
0
42
0.9063462356499619
0
VERTEX
8
0
10
22.91784375
20
51.4604
30
0
0
VERTEX
8
0
10
21.53215625
20
51.4604
30
0
0
VERTEX
8
0
10
21.467581250000002
20
51.454040625000005
30
0
42
0.9063462356499619
0
VERTEX
8
0
10
21.53215625
20
50.1396
30
0
0
VERTEX
8
0
10
22.91784375
20
50.1396
30
0
0
SEQEND
0
POLYLINE
66
1
8
1_copper
10
0.0
20
0.0
30
0.0
70
1
0
VERTEX
8
0
10
45.78741875
20
22.500959375
30
0
42
0.9063462356499619
0
VERTEX
8
0
10
45.72284375
20
23.8154
30
0
0
VERTEX
8
0
10
44.473400000000005
20
23.8154
30
0
0
VERTEX
8
0
10
41.9549
20
26.3339
30
0
0
VERTEX
8
0
10
41.9508875
20
26.336815625
30
0
42
0.17873043370239752
0
VERTEX
8
0
10
41.910000000000004
20
26.352500000000003
30
0
0
VERTEX
8
0
10
37.237300000000005
20
26.352500000000003
30
0
0
VERTEX
8
0
10
27.603900000000003
20
35.9859
30
0
0
VERTEX
8
0
10
27.5998875
20
35.988815625
30
0
42
0.17873043370239752
0
VERTEX
8
0
10
27.559
20
36.0045
30
0
0
VERTEX
8
0
10
27.222540625
20
36.0045
30
0
0
VERTEX
8
0
10
27.22129375
20
36.012375
30
0
42
0.9999999999999999
0
VERTEX
8
0
10
26.62670625
20
35.869625
30
0
0
VERTEX
8
0
10
26.64153125
20
35.823996875
30
0
42
0.7265403578721364
0
VERTEX
8
0
10
27.22129375
20
35.869625
30
0
0
VERTEX
8
0
10
27.222540625
20
35.877500000000005
30
0
0
VERTEX
8
0
10
27.532700000000002
20
35.877500000000005
30
0
0
VERTEX
8
0
10
37.1661
20
26.2441
30
0
0
VERTEX
8
0
10
37.1701125
20
26.241184375
30
0
42
0.17873043370239752
0
VERTEX
8
0
10
37.211
20
26.2255
30
0
0
VERTEX
8
0
10
41.883700000000005
20
26.2255
30
0
0
VERTEX
8
0
10
44.2976875
20
23.811512500000003
30
0
0
VERTEX
8
0
10
44.27258125
20
23.809040625
30
0
42
0.9063462356499619
0
VERTEX
8
0
10
44.33715625
20
22.494600000000002
30
0
0
VERTEX
8
0
10
45.72284375
20
22.494600000000002
30
0
0
SEQEND
0
POLYLINE
66
1
8
16_copper
10
0.0
20
0.0
30
0.0
70
1
0
VERTEX
8
0
10
26.995375000000003
20
35.64370625
30
0
42
0.78833363590477
0
VERTEX
8
0
10
26.995375000000003
20
36.238293750000004
30
0
0
VERTEX
8
0
10
26.9875
20
36.239540625000004
30
0
0
VERTEX
8
0
10
26.9875
20
45.847
30
0
0
VERTEX
8
0
10
26.986721875
20
45.851903125
30
0
42
0.1787130343549712
0
VERTEX
8
0
10
26.9689
20
45.8919
30
0
0
VERTEX
8
0
10
22.7212
20
50.1396
30
0
0
VERTEX
8
0
10
22.91784375
20
50.1396
30
0
42
0.9520786018124834
0
VERTEX
8
0
10
22.91784375
20
51.4604
30
0
0
VERTEX
8
0
10
21.53215625
20
51.4604
30
0
0
VERTEX
8
0
10
21.467581250000002
20
51.454040625000005
30
0
42
0.9063462356499619
0
VERTEX
8
0
10
21.53215625
20
50.1396
30
0
0
VERTEX
8
0
10
22.541600000000003
20
50.1396
30
0
0
VERTEX
8
0
10
26.860500000000002
20
45.8207
30
0
0
VERTEX
8
0
10
26.860500000000002
20
36.239540625000004
30
0
0
VERTEX
8
0
10
26.852625
20
36.238293750000004
30
0
42
0.9243877117191143
0
VERTEX
8
0
10
26.9479875
20
35.6362
30
0
0
SEQEND
0
POLYLINE
66
1
8
16_copper
10
0.0
20
0.0
30
0.0
70
1
0
VERTEX
8
0
10
45.78741875
20
22.500959375
30
0
42
0.9063462356499619
0
VERTEX
8
0
10
45.72284375
20
23.8154
30
0
0
VERTEX
8
0
10
44.33715625
20
23.8154
30
0
0
VERTEX
8
0
10
44.27258125
20
23.809040625
30
0
42
0.9063462356499619
0
VERTEX
8
0
10
44.33715625
20
22.494600000000002
30
0
0
VERTEX
8
0
10
45.72284375
20
22.494600000000002
30
0
0
SEQEND
0
POLYLINE
66
1
8
1_copper
10
0.0
20
0.0
30
0.0
70
1
0
VERTEX
8
0
10
45.78741875
20
19.960959375
30
0
42
0.9063462356499619
0
VERTEX
8
0
10
45.72284375
20
21.2754
30
0
0
VERTEX
8
0
10
44.33715625
20
21.2754
30
0
0
VERTEX
8
0
10
44.27258125
20
21.269040625000002
30
0
42
0.9063462356499619
0
VERTEX
8
0
10
44.33715625
20
19.9546
30
0
0
VERTEX
8
0
10
45.72284375
20
19.9546
30
0
0
SEQEND
0
POLYLINE
66
1
8
1_copper
10
0.0
20
0.0
30
0.0
70
1
0
VERTEX
8
0
10
38.22241875
20
1.885959375
30
0
42
0.9063462356499619
0
VERTEX
8
0
10
38.157843750000005
20
3.2004
30
0
0
VERTEX
8
0
10
36.77215625
20
3.2004
30
0
0
VERTEX
8
0
10
36.707581250000004
20
3.194040625
30
0
42
0.9063462356499619
0
VERTEX
8
0
10
36.77215625
20
1.8796000000000002
30
0
0
VERTEX
8
0
10
38.157843750000005
20
1.8796000000000002
30
0
0
SEQEND
0
POLYLINE
66
1
8
16_copper
10
0.0
20
0.0
30
0.0
70
1
0
VERTEX
8
0
10
38.22241875
20
1.885959375
30
0
42
0.3303545576459427
0
VERTEX
8
0
10
38.779440625
20
2.4429812500000003
30
0
0
VERTEX
8
0
10
38.782740625
20
2.4765
30
0
0
VERTEX
8
0
10
38.989000000000004
20
2.4765
30
0
0
VERTEX
8
0
10
38.993903125
20
2.477278125
30
0
42
0.1787130343549712
0
VERTEX
8
0
10
39.0339
20
2.4951000000000003
30
0
0
VERTEX
8
0
10
46.6539
20
10.1151
30
0
0
VERTEX
8
0
10
46.656815625
20
10.1191125
30
0
42
0.17873043370239752
0
VERTEX
8
0
10
46.6725
20
10.16
30
0
0
VERTEX
8
0
10
46.6725
20
19.05
30
0
0
VERTEX
8
0
10
46.671721875
20
19.054903125
30
0
42
0.1787130343549712
0
VERTEX
8
0
10
46.6539
20
19.094900000000003
30
0
0
VERTEX
8
0
10
45.787771875000004
20
19.961028125000002
30
0
0
VERTEX
8
0
10
45.85105625
20
19.97361875
30
0
42
0.862606571940854
0
VERTEX
8
0
10
45.72284375
20
21.2754
30
0
0
VERTEX
8
0
10
44.33715625
20
21.2754
30
0
0
VERTEX
8
0
10
44.27258125
20
21.269040625000002
30
0
42
0.9063462356499619
0
VERTEX
8
0
10
44.33715625
20
19.9546
30
0
0
VERTEX
8
0
10
45.6146
20
19.9546
30
0
0
VERTEX
8
0
10
46.545500000000004
20
19.0237
30
0
0
VERTEX
8
0
10
46.545500000000004
20
10.186300000000001
30
0
0
VERTEX
8
0
10
38.962700000000005
20
2.6035
30
0
0
VERTEX
8
0
10
38.782740625
20
2.6035
30
0
0
VERTEX
8
0
10
38.779440625
20
2.63701875
30
0
42
0.3578051432831595
0
VERTEX
8
0
10
38.157843750000005
20
3.2004
30
0
0
VERTEX
8
0
10
36.77215625
20
3.2004
30
0
0
VERTEX
8
0
10
36.707581250000004
20
3.194040625
30
0
42
0.9063462356499619
0
VERTEX
8
0
10
36.77215625
20
1.8796000000000002
30
0
0
VERTEX
8
0
10
38.157843750000005
20
1.8796000000000002
30
0
0
SEQEND
0
POLYLINE
66
1
8
1_copper
10
0.0
20
0.0
30
0.0
70
1
0
VERTEX
8
0
10
22.98241875
20
4.425959375000001
30
0
42
0.3303545576459427
0
VERTEX
8
0
10
23.539440625
20
4.98298125
30
0
0
VERTEX
8
0
10
23.542740625
20
5.016500000000001
30
0
0
VERTEX
8
0
10
27.94
20
5.016500000000001
30
0
0
VERTEX
8
0
10
27.944903125
20
5.017278125
30
0
42
0.1787130343549712
0
VERTEX
8
0
10
27.9849
20
5.0351
30
0
0
VERTEX
8
0
10
36.9833
20
14.0335
30
0
0
VERTEX
8
0
10
45.466
20
14.0335
30
0
0
VERTEX
8
0
10
45.470903125
20
14.034278125
30
0
42
0.1787130343549712
0
VERTEX
8
0
10
45.5109
20
14.052100000000001
30
0
0
VERTEX
8
0
10
46.6539
20
15.1951
30
0
0
VERTEX
8
0
10
46.656815625
20
15.1991125
30
0
42
0.17873043370239752
0
VERTEX
8
0
10
46.6725
20
15.24
30
0
0
VERTEX
8
0
10
46.6725
20
16.51
30
0
0
VERTEX
8
0
10
46.671721875
20
16.514903125
30
0
42
0.1787130343549712
0
VERTEX
8
0
10
46.6539
20
16.5549
30
0
0
VERTEX
8
0
10
45.787771875000004
20
17.421028125
30
0
0
VERTEX
8
0
10
45.85105625
20
17.43361875
30
0
42
0.862606571940854
0
VERTEX
8
0
10
45.72284375
20
18.735400000000002
30
0
0
VERTEX
8
0
10
44.33715625
20
18.735400000000002
30
0
0
VERTEX
8
0
10
44.27258125
20
18.729040625
30
0
42
0.9063462356499619
0
VERTEX
8
0
10
44.33715625
20
17.4146
30
0
0
VERTEX
8
0
10
45.6146
20
17.4146
30
0
0
VERTEX
8
0
10
46.545500000000004
20
16.483700000000002
30
0
0
VERTEX
8
0
10
46.545500000000004
20
15.266300000000001
30
0
0
VERTEX
8
0
10
45.4397
20
14.1605
30
0
0
VERTEX
8
0
10
36.957
20
14.1605
30
0
0
VERTEX
8
0
10
36.952096875
20
14.159721875
30
0
42
0.1787130343549712
0
VERTEX
8
0
10
36.9121
20
14.141900000000001
30
0
0
VERTEX
8
0
10
27.913700000000002
20
5.1435
30
0
0
VERTEX
8
0
10
23.542740625
20
5.1435
30
0
0
VERTEX
8
0
10
23.539440625
20
5.17701875
30
0
42
0.3578051432831595
0
VERTEX
8
0
10
22.91784375
20
5.7404
30
0
0
VERTEX
8
0
10
21.53215625
20
5.7404
30
0
0
VERTEX
8
0
10
21.467581250000002
20
5.7340406250000004
30
0
42
0.9063462356499619
0
VERTEX
8
0
10
21.53215625
20
4.4196
30
0
0
VERTEX
8
0
10
22.91784375
20
4.4196
30
0
0
SEQEND
0
POLYLINE
66
1
8
16_copper
10
0.0
20
0.0
30
0.0
70
1
0
VERTEX
8
0
10
45.78741875
20
17.420959375000002
30
0
42
0.9063462356499619
0
VERTEX
8
0
10
45.72284375
20
18.735400000000002
30
0
0
VERTEX
8
0
10
44.33715625
20
18.735400000000002
30
0
0
VERTEX
8
0
10
44.27258125
20
18.729040625
30
0
42
0.9063462356499619
0
VERTEX
8
0
10
44.33715625
20
17.4146
30
0
0
VERTEX
8
0
10
45.72284375
20
17.4146
30
0
0
SEQEND
0
POLYLINE
66
1
8
16_copper
10
0.0
20
0.0
30
0.0
70
1
0
VERTEX
8
0
10
22.98241875
20
4.425959375000001
30
0
42
0.9063462356499619
0
VERTEX
8
0
10
22.91784375
20
5.7404
30
0
0
VERTEX
8
0
10
21.53215625
20
5.7404
30
0
0
VERTEX
8
0
10
21.467581250000002
20
5.7340406250000004
30
0
42
0.9063462356499619
0
VERTEX
8
0
10
21.53215625
20
4.4196
30
0
0
VERTEX
8
0
10
22.91784375
20
4.4196
30
0
0
SEQEND
0
POLYLINE
66
1
8
1_copper
10
0.0
20
0.0
30
0.0
70
1
0
VERTEX
8
0
10
22.98241875
20
9.505959375
30
0
42
0.3303545576459427
0
VERTEX
8
0
10
23.539440625
20
10.06298125
30
0
0
VERTEX
8
0
10
23.542740625
20
10.0965
30
0
0
VERTEX
8
0
10
32.639
20
10.0965
30
0
0
VERTEX
8
0
10
32.643903125
20
10.097278125
30
0
42
0.1787130343549712
0
VERTEX
8
0
10
32.6839
20
10.1151
30
0
0
VERTEX
8
0
10
36.856300000000005
20
14.287500000000001
30
0
0
VERTEX
8
0
10
43.815000000000005
20
14.287500000000001
30
0
0
VERTEX
8
0
10
43.819903125
20
14.288278125000001
30
0
42
0.1787130343549712
0
VERTEX
8
0
10
43.8599
20
14.3061
30
0
0
VERTEX
8
0
10
44.4284
20
14.874600000000001
30
0
0
VERTEX
8
0
10
45.72284375
20
14.874600000000001
30
0
0
VERTEX
8
0
10
45.78741875
20
14.880959375000002
30
0
42
0.9063462356499619
0
VERTEX
8
0
10
45.72284375
20
16.1954
30
0
0
VERTEX
8
0
10
44.33715625
20
16.1954
30
0
0
VERTEX
8
0
10
44.27258125
20
16.189040625
30
0
42
0.8206790253835129
0
VERTEX
8
0
10
44.20894375
20
14.89361875
30
0
0
VERTEX
8
0
10
44.258050000000004
20
14.88385
30
0
0
VERTEX
8
0
10
43.7887
20
14.4145
30
0
0
VERTEX
8
0
10
36.83
20
14.4145
30
0
0
VERTEX
8
0
10
36.825096875
20
14.413721875
30
0
42
0.1787130343549712
0
VERTEX
8
0
10
36.7851
20
14.395900000000001
30
0
0
VERTEX
8
0
10
32.612700000000004
20
10.223500000000001
30
0
0
VERTEX
8
0
10
23.542740625
20
10.223500000000001
30
0
0
VERTEX
8
0
10
23.539440625
20
10.25701875
30
0
42
0.3578051432831595
0
VERTEX
8
0
10
22.91784375
20
10.820400000000001
30
0
0
VERTEX
8
0
10
21.53215625
20
10.820400000000001
30
0
0
VERTEX
8
0
10
21.467581250000002
20
10.814040625
30
0
42
0.9063462356499619
0
VERTEX
8
0
10
21.53215625
20
9.499600000000001
30
0
0
VERTEX
8
0
10
22.91784375
20
9.499600000000001
30
0
0
SEQEND
0
POLYLINE
66
1
8
16_copper
10
0.0
20
0.0
30
0.0
70
1
0
VERTEX
8
0
10
45.78741875
20
14.880959375000002
30
0
42
0.9063462356499619
0
VERTEX
8
0
10
45.72284375
20
16.1954
30
0
0
VERTEX
8
0
10
44.33715625
20
16.1954
30
0
0
VERTEX
8
0
10
44.27258125
20
16.189040625
30
0
42
0.9063462356499619
0
VERTEX
8
0
10
44.33715625
20
14.874600000000001
30
0
0
VERTEX
8
0
10
45.72284375
20
14.874600000000001
30
0
0
SEQEND
0
POLYLINE
66
1
8
16_copper
10
0.0
20
0.0
30
0.0
70
1
0
VERTEX
8
0
10
22.98241875
20
9.505959375
30
0
42
0.9063462356499619
0
VERTEX
8
0
10
22.91784375
20
10.820400000000001
30
0
0
VERTEX
8
0
10
21.53215625
20
10.820400000000001
30
0
0
VERTEX
8
0
10
21.467581250000002
20
10.814040625
30
0
42
0.9063462356499619
0
VERTEX
8
0
10
21.53215625
20
9.499600000000001
30
0
0
VERTEX
8
0
10
22.91784375
20
9.499600000000001
30
0
0
SEQEND
0
POLYLINE
66
1
8
1_copper
10
0.0
20
0.0
30
0.0
70
1
0
VERTEX
8
0
10
45.78741875
20
12.340959375
30
0
42
0.8626046433002116
0
VERTEX
8
0
10
45.78741875
20
13.649040625000001
30
0
0
VERTEX
8
0
10
45.746837500000005
20
13.6530375
30
0
0
VERTEX
8
0
10
48.5403
20
16.4465
30
0
0
VERTEX
8
0
10
52.959
20
16.4465
30
0
0
VERTEX
8
0
10
52.963903125
20
16.447278125
30
0
42
0.1787130343549712
0
VERTEX
8
0
10
53.0039
20
16.4651
30
0
0
VERTEX
8
0
10
54.273900000000005
20
17.7351
30
0
0
VERTEX
8
0
10
54.276815625000005
20
17.7391125
30
0
42
0.17873043370239752
0
VERTEX
8
0
10
54.292500000000004
20
17.78
30
0
0
VERTEX
8
0
10
54.292500000000004
20
18.415
30
0
0
VERTEX
8
0
10
54.291721875
20
18.419903125
30
0
42
0.1787130343549712
0
VERTEX
8
0
10
54.273900000000005
20
18.4599
30
0
0
VERTEX
8
0
10
53.6389
20
19.094900000000003
30
0
0
VERTEX
8
0
10
53.634887500000005
20
19.097815625000003
30
0
42
0.17873043370239752
0
VERTEX
8
0
10
53.594
20
19.113500000000002
30
0
0
VERTEX
8
0
10
52.350300000000004
20
19.113500000000002
30
0
0
VERTEX
8
0
10
51.1175
20
20.3463
30
0
0
VERTEX
8
0
10
51.1175
20
21.59
30
0
0
VERTEX
8
0
10
51.116721875
20
21.594903125000002
30
0
42
0.1787130343549712
0
VERTEX
8
0
10
51.0989
20
21.634900000000002
30
0
0
VERTEX
8
0
10
46.0189
20
26.7149
30
0
0
VERTEX
8
0
10
46.0148875
20
26.717815625
30
0
42
0.17873043370239752
0
VERTEX
8
0
10
45.974000000000004
20
26.733500000000003
30
0
0
VERTEX
8
0
10
44.7303
20
26.733500000000003
30
0
0
VERTEX
8
0
10
38.72410625
20
32.73969375
30
0
0
VERTEX
8
0
10
38.747946875000004
20
32.79725
30
0
42
0.5033571487064221
0
VERTEX
8
0
10
38.157843750000005
20
33.6804
30
0
0
VERTEX
8
0
10
36.77215625
20
33.6804
30
0
0
VERTEX
8
0
10
36.707581250000004
20
33.674040625
30
0
42
0.9063462356499619
0
VERTEX
8
0
10
36.77215625
20
32.3596
30
0
0
VERTEX
8
0
10
38.157843750000005
20
32.3596
30
0
0
VERTEX
8
0
10
38.22241875
20
32.365959375
30
0
42
0.19891178797668843
0
VERTEX
8
0
10
38.656478125
20
32.626125
30
0
0
VERTEX
8
0
10
38.65711875
20
32.62708125
30
0
0
VERTEX
8
0
10
44.6591
20
26.6251
30
0
0
VERTEX
8
0
10
44.663112500000004
20
26.622184375
30
0
42
0.17873043370239752
0
VERTEX
8
0
10
44.704
20
26.6065
30
0
0
VERTEX
8
0
10
45.947700000000005
20
26.6065
30
0
0
VERTEX
8
0
10
50.990500000000004
20
21.5637
30
0
0
VERTEX
8
0
10
50.990500000000004
20
20.32
30
0
0
VERTEX
8
0
10
50.991278125
20
20.315096875000002
30
0
42
0.1787130343549712
0
VERTEX
8
0
10
51.009100000000004
20
20.275100000000002
30
0
0
VERTEX
8
0
10
52.2791
20
19.005100000000002
30
0
0
VERTEX
8
0
10
52.2831125
20
19.002184375000002
30
0
42
0.17873043370239752
0
VERTEX
8
0
10
52.324000000000005
20
18.9865
30
0
0
VERTEX
8
0
10
53.5677
20
18.9865
30
0
0
VERTEX
8
0
10
54.1655
20
18.3887
30
0
0
VERTEX
8
0
10
54.1655
20
17.8063
30
0
0
VERTEX
8
0
10
52.932700000000004
20
16.5735
30
0
0
VERTEX
8
0
10
48.514
20
16.5735
30
0
0
VERTEX
8
0
10
48.509096875000004
20
16.572721875
30
0
42
0.1787130343549712
0
VERTEX
8
0
10
48.469100000000005
20
16.5549
30
0
0
VERTEX
8
0
10
45.5696
20
13.6554
30
0
0
VERTEX
8
0
10
44.33715625
20
13.6554
30
0
0
VERTEX
8
0
10
44.27258125
20
13.649040625000001
30
0
42
0.9063462356499619
0
VERTEX
8
0
10
44.33715625
20
12.3346
30
0
0
VERTEX
8
0
10
45.72284375
20
12.3346
30
0
0
SEQEND
0
POLYLINE
66
1
8
16_copper
10
0.0
20
0.0
30
0.0
70
1
0
VERTEX
8
0
10
38.22241875
20
32.365959375
30
0
42
0.9063462356499619
0
VERTEX
8
0
10
38.157843750000005
20
33.6804
30
0
0
VERTEX
8
0
10
36.77215625
20
33.6804
30
0
0
VERTEX
8
0
10
36.707581250000004
20
33.674040625
30
0
42
0.9063462356499619
0
VERTEX
8
0
10
36.77215625
20
32.3596
30
0
0
VERTEX
8
0
10
38.157843750000005
20
32.3596
30
0
0
SEQEND
0
POLYLINE
66
1
8
16_copper
10
0.0
20
0.0
30
0.0
70
1
0
VERTEX
8
0
10
45.78741875
20
12.340959375
30
0
42
0.9063462356499619
0
VERTEX
8
0
10
45.72284375
20
13.6554
30
0
0
VERTEX
8
0
10
44.33715625
20
13.6554
30
0
0
VERTEX
8
0
10
44.27258125
20
13.649040625000001
30
0
42
0.9063462356499619
0
VERTEX
8
0
10
44.33715625
20
12.3346
30
0
0
VERTEX
8
0
10
45.72284375
20
12.3346
30
0
0
SEQEND
0
POLYLINE
66
1
8
1_copper
10
0.0
20
0.0
30
0.0
70
1
0
VERTEX
8
0
10
38.22241875
20
29.825959375
30
0
42
0.9063462356499619
0
VERTEX
8
0
10
38.157843750000005
20
31.140400000000003
30
0
0
VERTEX
8
0
10
36.77215625
20
31.140400000000003
30
0
0
VERTEX
8
0
10
36.707581250000004
20
31.134040625
30
0
42
0.9063462356499619
0
VERTEX
8
0
10
36.77215625
20
29.8196
30
0
0
VERTEX
8
0
10
38.157843750000005
20
29.8196
30
0
0
SEQEND
0
POLYLINE
66
1
8
1_copper
10
0.0
20
0.0
30
0.0
70
1
0
VERTEX
8
0
10
45.78741875
20
9.800959375
30
0
42
0.9063462356499619
0
VERTEX
8
0
10
45.72284375
20
11.115400000000001
30
0
0
VERTEX
8
0
10
44.33715625
20
11.115400000000001
30
0
0
VERTEX
8
0
10
44.27258125
20
11.109040625
30
0
42
0.9063462356499619
0
VERTEX
8
0
10
44.33715625
20
9.7946
30
0
0
VERTEX
8
0
10
45.72284375
20
9.7946
30
0
0
SEQEND
0
POLYLINE
66
1
8
16_copper
10
0.0
20
0.0
30
0.0
70
1
0
VERTEX
8
0
10
45.78741875
20
9.800959375
30
0
42
0.9063462356499619
0
VERTEX
8
0
10
45.72284375
20
11.115400000000001
30
0
0
VERTEX
8
0
10
44.473400000000005
20
11.115400000000001
30
0
0
VERTEX
8
0
10
43.4975
20
12.0913
30
0
0
VERTEX
8
0
10
43.4975
20
13.716000000000001
30
0
0
VERTEX
8
0
10
43.496721875
20
13.720903125000001
30
0
42
0.1787130343549712
0
VERTEX
8
0
10
43.4789
20
13.760900000000001
30
0
0
VERTEX
8
0
10
38.5259
20
18.713900000000002
30
0
0
VERTEX
8
0
10
38.521887500000005
20
18.716815625000002
30
0
42
0.17873043370239752
0
VERTEX
8
0
10
38.481
20
18.7325
30
0
0
VERTEX
8
0
10
37.237300000000005
20
18.7325
30
0
0
VERTEX
8
0
10
36.0045
20
19.965300000000003
30
0
0
VERTEX
8
0
10
36.0045
20
28.294700000000002
30
0
0
VERTEX
8
0
10
37.5099
20
29.8001
30
0
0
VERTEX
8
0
10
37.512815625
20
29.804112500000002
30
0
42
0.05909389432932328
0
VERTEX
8
0
10
37.521575
20
29.816165625
30
0
0
VERTEX
8
0
10
37.522690625
20
29.8196
30
0
0
VERTEX
8
0
10
38.157843750000005
20
29.8196
30
0
0
VERTEX
8
0
10
38.22241875
20
29.825959375
30
0
42
0.9063462356499619
0
VERTEX
8
0
10
38.157843750000005
20
31.140400000000003
30
0
0
VERTEX
8
0
10
36.77215625
20
31.140400000000003
30
0
0
VERTEX
8
0
10
36.707581250000004
20
31.134040625
30
0
42
0.9063462356499619
0
VERTEX
8
0
10
36.77215625
20
29.8196
30
0
0
VERTEX
8
0
10
37.3498
20
29.8196
30
0
0
VERTEX
8
0
10
35.896100000000004
20
28.3659
30
0
0
VERTEX
8
0
10
35.893184375000004
20
28.3618875
30
0
42
0.17873043370239752
0
VERTEX
8
0
10
35.877500000000005
20
28.321
30
0
0
VERTEX
8
0
10
35.877500000000005
20
19.939
30
0
0
VERTEX
8
0
10
35.878278125
20
19.934096875
30
0
42
0.1787130343549712
0
VERTEX
8
0
10
35.896100000000004
20
19.8941
30
0
0
VERTEX
8
0
10
37.1661
20
18.624100000000002
30
0
0
VERTEX
8
0
10
37.1701125
20
18.621184375000002
30
0
42
0.17873043370239752
0
VERTEX
8
0
10
37.211
20
18.6055
30
0
0
VERTEX
8
0
10
38.4547
20
18.6055
30
0
0
VERTEX
8
0
10
43.3705
20
13.6897
30
0
0
VERTEX
8
0
10
43.3705
20
12.065000000000001
30
0
0
VERTEX
8
0
10
43.371278125
20
12.060096875000001
30
0
42
0.1787130343549712
0
VERTEX
8
0
10
43.3891
20
12.020100000000001
30
0
0
VERTEX
8
0
10
44.2976875
20
11.1115125
30
0
0
VERTEX
8
0
10
44.27258125
20
11.109040625
30
0
42
0.9063462356499619
0
VERTEX
8
0
10
44.33715625
20
9.7946
30
0
0
VERTEX
8
0
10
45.72284375
20
9.7946
30
0
0
SEQEND
0
POLYLINE
66
1
8
1_copper
10
0.0
20
0.0
30
0.0
70
1
0
VERTEX
8
0
10
38.22241875
20
27.285959375
30
0
42
0.9063462356499619
0
VERTEX
8
0
10
38.157843750000005
20
28.6004
30
0
0
VERTEX
8
0
10
36.77215625
20
28.6004
30
0
0
VERTEX
8
0
10
36.707581250000004
20
28.594040625
30
0
42
0.9063462356499619
0
VERTEX
8
0
10
36.77215625
20
27.279600000000002
30
0
0
VERTEX
8
0
10
38.157843750000005
20
27.279600000000002
30
0
0
SEQEND
0
POLYLINE
66
1
8
1_copper
10
0.0
20
0.0
30
0.0
70
1
0
VERTEX
8
0
10
53.407418750000005
20
9.800959375
30
0
42
0.9063462356499619
0
VERTEX
8
0
10
53.34284375
20
11.115400000000001
30
0
0
VERTEX
8
0
10
51.957156250000004
20
11.115400000000001
30
0
0
VERTEX
8
0
10
51.89258125
20
11.109040625
30
0
42
0.9063462356499619
0
VERTEX
8
0
10
51.957156250000004
20
9.7946
30
0
0
VERTEX
8
0
10
53.34284375
20
9.7946
30
0
0
SEQEND
0
POLYLINE
66
1
8
16_copper
10
0.0
20
0.0
30
0.0
70
1
0
VERTEX
8
0
10
53.407418750000005
20
9.800959375
30
0
42
0.8626046433002116
0
VERTEX
8
0
10
53.407418750000005
20
11.109040625
30
0
0
VERTEX
8
0
10
53.3668375
20
11.1130375
30
0
0
VERTEX
8
0
10
54.273900000000005
20
12.020100000000001
30
0
0
VERTEX
8
0
10
54.276815625000005
20
12.024112500000001
30
0
42
0.17873043370239752
0
VERTEX
8
0
10
54.292500000000004
20
12.065000000000001
30
0
0
VERTEX
8
0
10
54.292500000000004
20
13.335
30
0
0
VERTEX
8
0
10
54.291721875
20
13.339903125000001
30
0
42
0.1787130343549712
0
VERTEX
8
0
10
54.273900000000005
20
13.379900000000001
30
0
0
VERTEX
8
0
10
53.6389
20
14.0149
30
0
0
VERTEX
8
0
10
53.634887500000005
20
14.017815625
30
0
42
0.17873043370239752
0
VERTEX
8
0
10
53.594
20
14.0335
30
0
0
VERTEX
8
0
10
52.350300000000004
20
14.0335
30
0
0
VERTEX
8
0
10
51.1175
20
15.266300000000001
30
0
0
VERTEX
8
0
10
51.1175
20
16.891000000000002
30
0
0
VERTEX
8
0
10
51.116721875
20
16.895903125
30
0
42
0.1787130343549712
0
VERTEX
8
0
10
51.0989
20
16.9359
30
0
0
VERTEX
8
0
10
45.764900000000004
20
22.2699
30
0
0
VERTEX
8
0
10
45.7608875
20
22.272815625
30
0
42
0.17873043370239752
0
VERTEX
8
0
10
45.72
20
22.288500000000003
30
0
0
VERTEX
8
0
10
44.0953
20
22.288500000000003
30
0
0
VERTEX
8
0
10
38.72410625
20
27.659693750000002
30
0
0
VERTEX
8
0
10
38.747946875000004
20
27.71725
30
0
42
0.5033571487064221
0
VERTEX
8
0
10
38.157843750000005
20
28.6004
30
0
0
VERTEX
8
0
10
36.77215625
20
28.6004
30
0
0
VERTEX
8
0
10
36.707581250000004
20
28.594040625
30
0
42
0.9063462356499619
0
VERTEX
8
0
10
36.77215625
20
27.279600000000002
30
0
0
VERTEX
8
0
10
38.157843750000005
20
27.279600000000002
30
0
0
VERTEX
8
0
10
38.22241875
20
27.285959375
30
0
42
0.19891178797668843
0
VERTEX
8
0
10
38.656478125
20
27.546125
30
0
0
VERTEX
8
0
10
38.65711875
20
27.54708125
30
0
0
VERTEX
8
0
10
44.024100000000004
20
22.1801
30
0
0
VERTEX
8
0
10
44.0281125
20
22.177184375
30
0
42
0.17873043370239752
0
VERTEX
8
0
10
44.069
20
22.1615
30
0
0
VERTEX
8
0
10
45.6937
20
22.1615
30
0
0
VERTEX
8
0
10
50.990500000000004
20
16.8647
30
0
0
VERTEX
8
0
10
50.990500000000004
20
15.24
30
0
0
VERTEX
8
0
10
50.991278125
20
15.235096875
30
0
42
0.1787130343549712
0
VERTEX
8
0
10
51.009100000000004
20
15.1951
30
0
0
VERTEX
8
0
10
52.2791
20
13.9251
30
0
0
VERTEX
8
0
10
52.2831125
20
13.922184375
30
0
42
0.17873043370239752
0
VERTEX
8
0
10
52.324000000000005
20
13.906500000000001
30
0
0
VERTEX
8
0
10
53.5677
20
13.906500000000001
30
0
0
VERTEX
8
0
10
54.1655
20
13.3087
30
0
0
VERTEX
8
0
10
54.1655
20
12.0913
30
0
0
VERTEX
8
0
10
53.189600000000006
20
11.115400000000001
30
0
0
VERTEX
8
0
10
51.957156250000004
20
11.115400000000001
30
0
0
VERTEX
8
0
10
51.89258125
20
11.109040625
30
0
42
0.9063462356499619
0
VERTEX
8
0
10
51.957156250000004
20
9.7946
30
0
0
VERTEX
8
0
10
53.34284375
20
9.7946
30
0
0
SEQEND
0
POLYLINE
66
1
8
1_copper
10
0.0
20
0.0
30
0.0
70
1
0
VERTEX
8
0
10
38.22241875
20
24.745959375
30
0
42
0.9063462356499619
0
VERTEX
8
0
10
38.157843750000005
20
26.0604
30
0
0
VERTEX
8
0
10
36.77215625
20
26.0604
30
0
0
VERTEX
8
0
10
36.707581250000004
20
26.054040625000003
30
0
42
0.9063462356499619
0
VERTEX
8
0
10
36.77215625
20
24.739600000000003
30
0
0
VERTEX
8
0
10
38.157843750000005
20
24.739600000000003
30
0
0
SEQEND
0
POLYLINE
66
1
8
1_copper
10
0.0
20
0.0
30
0.0
70
1
0
VERTEX
8
0
10
53.407418750000005
20
12.340959375
30
0
42
0.9063462356499619
0
VERTEX
8
0
10
53.34284375
20
13.6554
30
0
0
VERTEX
8
0
10
51.957156250000004
20
13.6554
30
0
0
VERTEX
8
0
10
51.89258125
20
13.649040625000001
30
0
42
0.9063462356499619
0
VERTEX
8
0
10
51.957156250000004
20
12.3346
30
0
0
VERTEX
8
0
10
53.34284375
20
12.3346
30
0
0
SEQEND
0
POLYLINE
66
1
8
16_copper
10
0.0
20
0.0
30
0.0
70
1
0
VERTEX
8
0
10
53.407418750000005
20
12.340959375
30
0
42
0.9063462356499619
0
VERTEX
8
0
10
53.34284375
20
13.6554
30
0
0
VERTEX
8
0
10
52.3474
20
13.6554
30
0
0
VERTEX
8
0
10
46.926500000000004
20
19.0763
30
0
0
VERTEX
8
0
10
46.926500000000004
20
20.701
30
0
0
VERTEX
8
0
10
46.925721875
20
20.705903125000003
30
0
42
0.1787130343549712
0
VERTEX
8
0
10
46.907900000000005
20
20.745900000000002
30
0
0
VERTEX
8
0
10
45.6379
20
22.015900000000002
30
0
0
VERTEX
8
0
10
45.6338875
20
22.018815625000002
30
0
42
0.17873043370239752
0
VERTEX
8
0
10
45.593
20
22.0345
30
0
0
VERTEX
8
0
10
40.920300000000005
20
22.0345
30
0
0
VERTEX
8
0
10
38.210059375
20
24.744740625000002
30
0
0
VERTEX
8
0
10
38.22241875
20
24.745959375
30
0
42
0.9063462356499619
0
VERTEX
8
0
10
38.157843750000005
20
26.0604
30
0
0
VERTEX
8
0
10
36.77215625
20
26.0604
30
0
0
VERTEX
8
0
10
36.707581250000004
20
26.054040625000003
30
0
42
0.9063462356499619
0
VERTEX
8
0
10
36.77215625
20
24.739600000000003
30
0
0
VERTEX
8
0
10
38.0356
20
24.739600000000003
30
0
0
VERTEX
8
0
10
40.8491
20
21.9261
30
0
0
VERTEX
8
0
10
40.8531125
20
21.923184375
30
0
42
0.17873043370239752
0
VERTEX
8
0
10
40.894000000000005
20
21.907500000000002
30
0
0
VERTEX
8
0
10
45.566700000000004
20
21.907500000000002
30
0
0
VERTEX
8
0
10
46.7995
20
20.6747
30
0
0
VERTEX
8
0
10
46.7995
20
19.05
30
0
0
VERTEX
8
0
10
46.800278125000006
20
19.045096875000002
30
0
42
0.1787130343549712
0
VERTEX
8
0
10
46.8181
20
19.005100000000002
30
0
0
VERTEX
8
0
10
52.1678
20
13.6554
30
0
0
VERTEX
8
0
10
51.957156250000004
20
13.6554
30
0
42
0.9520786018124834
0
VERTEX
8
0
10
51.957156250000004
20
12.3346
30
0
0
VERTEX
8
0
10
53.34284375
20
12.3346
30
0
0
SEQEND
0
POLYLINE
66
1
8
1_copper
10
0.0
20
0.0
30
0.0
70
1
0
VERTEX
8
0
10
46.553375
20
21.92770625
30
0
42
0.9999999999999999
0
VERTEX
8
0
10
46.410625
20
22.52229375
30
0
0
VERTEX
8
0
10
46.364996875
20
22.50746875
30
0
42
0.24007725684138898
0
VERTEX
8
0
10
46.184706250000005
20
22.296375
30
0
0
VERTEX
8
0
10
46.183459375000005
20
22.288500000000003
30
0
0
VERTEX
8
0
10
38.45714375
20
22.288500000000003
30
0
0
VERTEX
8
0
10
38.465321875
20
22.292871875
30
0
42
0.7416511499668916
0
VERTEX
8
0
10
38.157843750000005
20
23.520400000000002
30
0
0
VERTEX
8
0
10
36.77215625
20
23.520400000000002
30
0
0
VERTEX
8
0
10
36.707581250000004
20
23.514040625
30
0
42
0.9063462356499619
0
VERTEX
8
0
10
36.77215625
20
22.1996
30
0
0
VERTEX
8
0
10
38.0356
20
22.1996
30
0
0
VERTEX
8
0
10
38.0551
20
22.1801
30
0
42
0.198912367379658
0
VERTEX
8
0
10
38.1
20
22.1615
30
0
0
VERTEX
8
0
10
46.183459375000005
20
22.1615
30
0
0
VERTEX
8
0
10
46.184706250000005
20
22.153625
30
0
42
0.36891777406339626
0
VERTEX
8
0
10
46.5059875
20
21.9202
30
0
0
SEQEND
0
POLYLINE
66
1
8
1_copper
10
0.0
20
0.0
30
0.0
70
1
0
VERTEX
8
0
10
53.407418750000005
20
14.880959375000002
30
0
42
0.9063462356499619
0
VERTEX
8
0
10
53.34284375
20
16.1954
30
0
0
VERTEX
8
0
10
51.957156250000004
20
16.1954
30
0
0
VERTEX
8
0
10
51.89258125
20
16.189040625
30
0
42
0.9063462356499619
0
VERTEX
8
0
10
51.957156250000004
20
14.874600000000001
30
0
0
VERTEX
8
0
10
53.34284375
20
14.874600000000001
30
0
0
SEQEND
0
POLYLINE
66
1
8
16_copper
10
0.0
20
0.0
30
0.0
70
1
0
VERTEX
8
0
10
38.22241875
20
22.205959375000003
30
0
42
0.9063462356499619
0
VERTEX
8
0
10
38.157843750000005
20
23.520400000000002
30
0
0
VERTEX
8
0
10
36.77215625
20
23.520400000000002
30
0
0
VERTEX
8
0
10
36.707581250000004
20
23.514040625
30
0
42
0.9063462356499619
0
VERTEX
8
0
10
36.77215625
20
22.1996
30
0
0
VERTEX
8
0
10
38.157843750000005
20
22.1996
30
0
0
SEQEND
0
POLYLINE
66
1
8
16_copper
10
0.0
20
0.0
30
0.0
70
1
0
VERTEX
8
0
10
53.407418750000005
20
14.880959375000002
30
0
42
0.9063462356499619
0
VERTEX
8
0
10
53.34284375
20
16.1954
30
0
0
VERTEX
8
0
10
52.601400000000005
20
16.1954
30
0
0
VERTEX
8
0
10
46.738
20
22.0588
30
0
0
VERTEX
8
0
10
46.7426875
20
22.065250000000002
30
0
42
0.9999999999999999
0
VERTEX
8
0
10
46.2213125
20
22.38475
30
0
0
VERTEX
8
0
10
46.19953125
20
22.342003125
30
0
42
0.7265439063773304
0
VERTEX
8
0
10
46.64175
20
21.964312500000002
30
0
0
VERTEX
8
0
10
46.6482
20
21.969
30
0
0
VERTEX
8
0
10
52.421800000000005
20
16.1954
30
0
0
VERTEX
8
0
10
51.957156250000004
20
16.1954
30
0
0
VERTEX
8
0
10
51.89258125
20
16.189040625
30
0
42
0.9063462356499619
0
VERTEX
8
0
10
51.957156250000004
20
14.874600000000001
30
0
0
VERTEX
8
0
10
53.34284375
20
14.874600000000001
30
0
0
SEQEND
0
POLYLINE
66
1
8
1_copper
10
0.0
20
0.0
30
0.0
70
1
0
VERTEX
8
0
10
53.407418750000005
20
17.420959375000002
30
0
42
0.9063462356499619
0
VERTEX
8
0
10
53.34284375
20
18.735400000000002
30
0
0
VERTEX
8
0
10
51.957156250000004
20
18.735400000000002
30
0
0
VERTEX
8
0
10
51.89258125
20
18.729040625
30
0
42
0.3033468366615956
0
VERTEX
8
0
10
51.34821875
20
18.23565625
30
0
0
VERTEX
8
0
10
51.346000000000004
20
18.224500000000003
30
0
0
VERTEX
8
0
10
46.889300000000006
20
18.224500000000003
30
0
0
VERTEX
8
0
10
45.383900000000004
20
19.7299
30
0
0
VERTEX
8
0
10
45.3798875
20
19.732815625
30
0
42
0.17873043370239752
0
VERTEX
8
0
10
45.339
20
19.7485
30
0
0
VERTEX
8
0
10
38.45714375
20
19.7485
30
0
0
VERTEX
8
0
10
38.465321875
20
19.752871875
30
0
42
0.7416511499668916
0
VERTEX
8
0
10
38.157843750000005
20
20.9804
30
0
0
VERTEX
8
0
10
36.77215625
20
20.9804
30
0
0
VERTEX
8
0
10
36.707581250000004
20
20.974040625
30
0
42
0.9063462356499619
0
VERTEX
8
0
10
36.77215625
20
19.6596
30
0
0
VERTEX
8
0
10
38.0356
20
19.6596
30
0
0
VERTEX
8
0
10
38.0551
20
19.6401
30
0
42
0.198912367379658
0
VERTEX
8
0
10
38.1
20
19.6215
30
0
0
VERTEX
8
0
10
45.3127
20
19.6215
30
0
0
VERTEX
8
0
10
46.8181
20
18.1161
30
0
0
VERTEX
8
0
10
46.8221125
20
18.113184375
30
0
42
0.17873043370239752
0
VERTEX
8
0
10
46.863
20
18.0975
30
0
0
VERTEX
8
0
10
51.3292
20
18.0975
30
0
0
VERTEX
8
0
10
51.3292
20
18.04255625
30
0
42
0.3857422379305178
0
VERTEX
8
0
10
51.957156250000004
20
17.4146
30
0
0
VERTEX
8
0
10
53.34284375
20
17.4146
30
0
0
SEQEND
0
POLYLINE
66
1
8
16_copper
10
0.0
20
0.0
30
0.0
70
1
0
VERTEX
8
0
10
38.22241875
20
19.665959375
30
0
42
0.9063462356499619
0
VERTEX
8
0
10
38.157843750000005
20
20.9804
30
0
0
VERTEX
8
0
10
36.77215625
20
20.9804
30
0
0
VERTEX
8
0
10
36.707581250000004
20
20.974040625
30
0
42
0.9063462356499619
0
VERTEX
8
0
10
36.77215625
20
19.6596
30
0
0
VERTEX
8
0
10
38.157843750000005
20
19.6596
30
0
0
SEQEND
0
POLYLINE
66
1
8
16_copper
10
0.0
20
0.0
30
0.0
70
1
0
VERTEX
8
0
10
53.407418750000005
20
17.420959375000002
30
0
42
0.9063462356499619
0
VERTEX
8
0
10
53.34284375
20
18.735400000000002
30
0
0
VERTEX
8
0
10
51.957156250000004
20
18.735400000000002
30
0
0
VERTEX
8
0
10
51.89258125
20
18.729040625
30
0
42
0.9063462356499619
0
VERTEX
8
0
10
51.957156250000004
20
17.4146
30
0
0
VERTEX
8
0
10
53.34284375
20
17.4146
30
0
0
SEQEND
0
POLYLINE
66
1
8
1_copper
10
0.0
20
0.0
30
0.0
70
1
0
VERTEX
8
0
10
50.363375000000005
20
21.292706250000002
30
0
42
0.9999999999999999
0
VERTEX
8
0
10
50.220625000000005
20
21.88729375
30
0
0
VERTEX
8
0
10
50.174996875000005
20
21.87246875
30
0
42
0.24007725684138898
0
VERTEX
8
0
10
49.99470625
20
21.661375
30
0
0
VERTEX
8
0
10
49.993459375
20
21.6535
30
0
0
VERTEX
8
0
10
36.856300000000005
20
21.6535
30
0
0
VERTEX
8
0
10
25.4449
20
33.0649
30
0
0
VERTEX
8
0
10
25.440887500000002
20
33.067815625
30
0
42
0.17873043370239752
0
VERTEX
8
0
10
25.400000000000002
20
33.0835
30
0
0
VERTEX
8
0
10
23.542740625
20
33.0835
30
0
0
VERTEX
8
0
10
23.539440625
20
33.11701875
30
0
42
0.3578051432831595
0
VERTEX
8
0
10
22.91784375
20
33.6804
30
0
0
VERTEX
8
0
10
21.53215625
20
33.6804
30
0
0
VERTEX
8
0
10
21.467581250000002
20
33.674040625
30
0
42
0.9063462356499619
0
VERTEX
8
0
10
21.53215625
20
32.3596
30
0
0
VERTEX
8
0
10
22.91784375
20
32.3596
30
0
0
VERTEX
8
0
10
22.98241875
20
32.365959375
30
0
42
0.3303545576459427
0
VERTEX
8
0
10
23.539440625
20
32.92298125
30
0
0
VERTEX
8
0
10
23.542740625
20
32.9565
30
0
0
VERTEX
8
0
10
25.3737
20
32.9565
30
0
0
VERTEX
8
0
10
36.7851
20
21.5451
30
0
0
VERTEX
8
0
10
36.7891125
20
21.542184375
30
0
42
0.17873043370239752
0
VERTEX
8
0
10
36.83
20
21.526500000000002
30
0
0
VERTEX
8
0
10
49.993459375
20
21.526500000000002
30
0
0
VERTEX
8
0
10
49.99470625
20
21.518625
30
0
42
0.36891777406339626
0
VERTEX
8
0
10
50.315987500000006
20
21.2852
30
0
0
SEQEND
0
POLYLINE
66
1
8
1_copper
10
0.0
20
0.0
30
0.0
70
1
0
VERTEX
8
0
10
53.407418750000005
20
19.960959375
30
0
42
0.9063462356499619
0
VERTEX
8
0
10
53.34284375
20
21.2754
30
0
0
VERTEX
8
0
10
51.957156250000004
20
21.2754
30
0
0
VERTEX
8
0
10
51.89258125
20
21.269040625000002
30
0
42
0.9063462356499619
0
VERTEX
8
0
10
51.957156250000004
20
19.9546
30
0
0
VERTEX
8
0
10
53.34284375
20
19.9546
30
0
0
SEQEND
0
POLYLINE
66
1
8
16_copper
10
0.0
20
0.0
30
0.0
70
1
0
VERTEX
8
0
10
22.98241875
20
32.365959375
30
0
42
0.9063462356499619
0
VERTEX
8
0
10
22.91784375
20
33.6804
30
0
0
VERTEX
8
0
10
21.53215625
20
33.6804
30
0
0
VERTEX
8
0
10
21.467581250000002
20
33.674040625
30
0
42
0.9063462356499619
0
VERTEX
8
0
10
21.53215625
20
32.3596
30
0
0
VERTEX
8
0
10
22.91784375
20
32.3596
30
0
0
SEQEND
0
POLYLINE
66
1
8
16_copper
10
0.0
20
0.0
30
0.0
70
1
0
VERTEX
8
0
10
53.407418750000005
20
19.960959375
30
0
42
0.9063462356499619
0
VERTEX
8
0
10
53.34284375
20
21.2754
30
0
0
VERTEX
8
0
10
52.0934
20
21.2754
30
0
0
VERTEX
8
0
10
51.733900000000006
20
21.634900000000002
30
0
0
VERTEX
8
0
10
51.729887500000004
20
21.637815625
30
0
42
0.17873043370239752
0
VERTEX
8
0
10
51.689
20
21.6535
30
0
0
VERTEX
8
0
10
50.590540625
20
21.6535
30
0
0
VERTEX
8
0
10
50.58929375
20
21.661375
30
0
42
0.9999999999999999
0
VERTEX
8
0
10
49.99470625
20
21.518625
30
0
0
VERTEX
8
0
10
50.00953125
20
21.472996875
30
0
42
0.7265403578721364
0
VERTEX
8
0
10
50.58929375
20
21.518625
30
0
0
VERTEX
8
0
10
50.590540625
20
21.526500000000002
30
0
0
VERTEX
8
0
10
51.6627
20
21.526500000000002
30
0
0
VERTEX
8
0
10
51.9176875
20
21.2715125
30
0
0
VERTEX
8
0
10
51.89258125
20
21.269040625000002
30
0
42
0.9063462356499619
0
VERTEX
8
0
10
51.957156250000004
20
19.9546
30
0
0
VERTEX
8
0
10
53.34284375
20
19.9546
30
0
0
SEQEND
0
POLYLINE
66
1
8
1_copper
10
0.0
20
0.0
30
0.0
70
1
0
VERTEX
8
0
10
22.98241875
20
29.825959375
30
0
42
0.9063462356499619
0
VERTEX
8
0
10
22.91784375
20
31.140400000000003
30
0
0
VERTEX
8
0
10
21.53215625
20
31.140400000000003
30
0
0
VERTEX
8
0
10
21.467581250000002
20
31.134040625
30
0
42
0.9063462356499619
0
VERTEX
8
0
10
21.53215625
20
29.8196
30
0
0
VERTEX
8
0
10
22.91784375
20
29.8196
30
0
0
SEQEND
0
POLYLINE
66
1
8
1_copper
10
0.0
20
0.0
30
0.0
70
1
0
VERTEX
8
0
10
53.407418750000005
20
22.500959375
30
0
42
0.9063462356499619
0
VERTEX
8
0
10
53.34284375
20
23.8154
30
0
0
VERTEX
8
0
10
51.957156250000004
20
23.8154
30
0
0
VERTEX
8
0
10
51.89258125
20
23.809040625
30
0
42
0.9063462356499619
0
VERTEX
8
0
10
51.957156250000004
20
22.494600000000002
30
0
0
VERTEX
8
0
10
53.34284375
20
22.494600000000002
30
0
0
SEQEND
0
POLYLINE
66
1
8
16_copper
10
0.0
20
0.0
30
0.0
70
1
0
VERTEX
8
0
10
53.407418750000005
20
22.500959375
30
0
42
0.9063462356499619
0
VERTEX
8
0
10
53.34284375
20
23.8154
30
0
0
VERTEX
8
0
10
52.7685
20
23.8154
30
0
0
VERTEX
8
0
10
52.7685
20
23.849700000000002
30
0
0
VERTEX
8
0
10
54.5279
20
25.6091
30
0
0
VERTEX
8
0
10
54.530815625
20
25.6131125
30
0
42
0.17873043370239752
0
VERTEX
8
0
10
54.5465
20
25.654
30
0
0
VERTEX
8
0
10
54.5465
20
28.702
30
0
0
VERTEX
8
0
10
54.545721875000005
20
28.706903125
30
0
42
0.1787130343549712
0
VERTEX
8
0
10
54.5279
20
28.7469
30
0
0
VERTEX
8
0
10
51.352900000000005
20
31.9219
30
0
0
VERTEX
8
0
10
51.348887500000004
20
31.924815625
30
0
42
0.17873043370239752
0
VERTEX
8
0
10
51.308
20
31.9405
30
0
0
VERTEX
8
0
10
24.384
20
31.9405
30
0
0
VERTEX
8
0
10
24.379096875000002
20
31.939721875
30
0
42
0.1787130343549712
0
VERTEX
8
0
10
24.339100000000002
20
31.9219
30
0
0
VERTEX
8
0
10
23.358275000000003
20
30.941075
30
0
0
VERTEX
8
0
10
23.329431250000003
20
30.969915625000002
30
0
42
0.17351562326278838
0
VERTEX
8
0
10
22.91784375
20
31.140400000000003
30
0
0
VERTEX
8
0
10
21.53215625
20
31.140400000000003
30
0
0
VERTEX
8
0
10
21.467581250000002
20
31.134040625
30
0
42
0.9063462356499619
0
VERTEX
8
0
10
21.53215625
20
29.8196
30
0
0
VERTEX
8
0
10
22.91784375
20
29.8196
30
0
0
VERTEX
8
0
10
22.98241875
20
29.825959375
30
0
42
0.5345099763805391
0
VERTEX
8
0
10
23.452528125
20
30.819921875000002
30
0
0
VERTEX
8
0
10
23.4381875
20
30.8413875
30
0
0
VERTEX
8
0
10
24.4103
20
31.8135
30
0
0
VERTEX
8
0
10
51.2817
20
31.8135
30
0
0
VERTEX
8
0
10
54.4195
20
28.675700000000003
30
0
0
VERTEX
8
0
10
54.4195
20
25.680300000000003
30
0
0
VERTEX
8
0
10
52.6601
20
23.9209
30
0
0
VERTEX
8
0
10
52.657184375
20
23.9168875
30
0
42
0.17873043370239752
0
VERTEX
8
0
10
52.6415
20
23.876
30
0
0
VERTEX
8
0
10
52.6415
20
23.8154
30
0
0
VERTEX
8
0
10
51.957156250000004
20
23.8154
30
0
0
VERTEX
8
0
10
51.89258125
20
23.809040625
30
0
42
0.9063462356499619
0
VERTEX
8
0
10
51.957156250000004
20
22.494600000000002
30
0
0
VERTEX
8
0
10
53.34284375
20
22.494600000000002
30
0
0
SEQEND
0
POLYLINE
66
1
8
1_copper
10
0.0
20
0.0
30
0.0
70
1
0
VERTEX
8
0
10
22.98241875
20
27.285959375
30
0
42
0.9063462356499619
0
VERTEX
8
0
10
22.91784375
20
28.6004
30
0
0
VERTEX
8
0
10
21.53215625
20
28.6004
30
0
0
VERTEX
8
0
10
21.467581250000002
20
28.594040625
30
0
42
0.9063462356499619
0
VERTEX
8
0
10
21.53215625
20
27.279600000000002
30
0
0
VERTEX
8
0
10
22.91784375
20
27.279600000000002
30
0
0
SEQEND
0
POLYLINE
66
1
8
1_copper
10
0.0
20
0.0
30
0.0
70
1
0
VERTEX
8
0
10
53.407418750000005
20
25.040959375
30
0
42
0.9063462356499619
0
VERTEX
8
0
10
53.34284375
20
26.3554
30
0
0
VERTEX
8
0
10
51.957156250000004
20
26.3554
30
0
0
VERTEX
8
0
10
51.89258125
20
26.349040625
30
0
42
0.9063462356499619
0
VERTEX
8
0
10
51.957156250000004
20
25.0346
30
0
0
VERTEX
8
0
10
53.34284375
20
25.0346
30
0
0
SEQEND
0
POLYLINE
66
1
8
16_copper
10
0.0
20
0.0
30
0.0
70
1
0
VERTEX
8
0
10
53.407418750000005
20
25.040959375
30
0
42
0.9063462356499619
0
VERTEX
8
0
10
53.34284375
20
26.3554
30
0
0
VERTEX
8
0
10
52.7685
20
26.3554
30
0
0
VERTEX
8
0
10
52.7685
20
26.3897
30
0
0
VERTEX
8
0
10
54.273900000000005
20
27.895100000000003
30
0
0
VERTEX
8
0
10
54.276815625000005
20
27.8991125
30
0
42
0.17873043370239752
0
VERTEX
8
0
10
54.292500000000004
20
27.94
30
0
0
VERTEX
8
0
10
54.292500000000004
20
28.575000000000003
30
0
0
VERTEX
8
0
10
54.291721875
20
28.579903125
30
0
42
0.1787130343549712
0
VERTEX
8
0
10
54.273900000000005
20
28.6199
30
0
0
VERTEX
8
0
10
51.2259
20
31.667900000000003
30
0
0
VERTEX
8
0
10
51.2218875
20
31.670815625000003
30
0
42
0.17873043370239752
0
VERTEX
8
0
10
51.181000000000004
20
31.686500000000002
30
0
0
VERTEX
8
0
10
30.226000000000003
20
31.686500000000002
30
0
0
VERTEX
8
0
10
30.221096875
20
31.685721875000002
30
0
42
0.1787130343549712
0
VERTEX
8
0
10
30.1811
20
31.667900000000003
30
0
0
VERTEX
8
0
10
26.5167
20
28.003500000000003
30
0
0
VERTEX
8
0
10
23.542740625
20
28.003500000000003
30
0
0
VERTEX
8
0
10
23.539440625
20
28.03701875
30
0
42
0.3578051432831595
0
VERTEX
8
0
10
22.91784375
20
28.6004
30
0
0
VERTEX
8
0
10
21.53215625
20
28.6004
30
0
0
VERTEX
8
0
10
21.467581250000002
20
28.594040625
30
0
42
0.9063462356499619
0
VERTEX
8
0
10
21.53215625
20
27.279600000000002
30
0
0
VERTEX
8
0
10
22.91784375
20
27.279600000000002
30
0
0
VERTEX
8
0
10
22.98241875
20
27.285959375
30
0
42
0.3303545576459427
0
VERTEX
8
0
10
23.539440625
20
27.84298125
30
0
0
VERTEX
8
0
10
23.542740625
20
27.8765
30
0
0
VERTEX
8
0
10
26.543000000000003
20
27.8765
30
0
0
VERTEX
8
0
10
26.547903125
20
27.877278125
30
0
42
0.1787130343549712
0
VERTEX
8
0
10
26.5879
20
27.895100000000003
30
0
0
VERTEX
8
0
10
30.2523
20
31.5595
30
0
0
VERTEX
8
0
10
51.154700000000005
20
31.5595
30
0
0
VERTEX
8
0
10
54.1655
20
28.5487
30
0
0
VERTEX
8
0
10
54.1655
20
27.9663
30
0
0
VERTEX
8
0
10
52.6601
20
26.460900000000002
30
0
0
VERTEX
8
0
10
52.657184375
20
26.4568875
30
0
42
0.17873043370239752
0
VERTEX
8
0
10
52.6415
20
26.416
30
0
0
VERTEX
8
0
10
52.6415
20
26.3554
30
0
0
VERTEX
8
0
10
51.957156250000004
20
26.3554
30
0
0
VERTEX
8
0
10
51.89258125
20
26.349040625
30
0
42
0.9063462356499619
0
VERTEX
8
0
10
51.957156250000004
20
25.0346
30
0
0
VERTEX
8
0
10
53.34284375
20
25.0346
30
0
0
SEQEND
0
POLYLINE
66
1
8
1_copper
10
0.0
20
0.0
30
0.0
70
1
0
VERTEX
8
0
10
53.407418750000005
20
27.580959375000003
30
0
42
0.9063462356499619
0
VERTEX
8
0
10
53.34284375
20
28.895400000000002
30
0
0
VERTEX
8
0
10
51.957156250000004
20
28.895400000000002
30
0
0
VERTEX
8
0
10
51.89258125
20
28.889040625
30
0
42
0.9063462356499619
0
VERTEX
8
0
10
51.957156250000004
20
27.5746
30
0
0
VERTEX
8
0
10
53.34284375
20
27.5746
30
0
0
SEQEND
0
POLYLINE
66
1
8
1_copper
10
0.0
20
0.0
30
0.0
70
1
0
VERTEX
8
0
10
22.98241875
20
24.745959375
30
0
42
0.9063462356499619
0
VERTEX
8
0
10
22.91784375
20
26.0604
30
0
0
VERTEX
8
0
10
21.53215625
20
26.0604
30
0
0
VERTEX
8
0
10
21.467581250000002
20
26.054040625000003
30
0
42
0.9063462356499619
0
VERTEX
8
0
10
21.53215625
20
24.739600000000003
30
0
0
VERTEX
8
0
10
22.91784375
20
24.739600000000003
30
0
0
SEQEND
0
POLYLINE
66
1
8
16_copper
10
0.0
20
0.0
30
0.0
70
1
0
VERTEX
8
0
10
22.98241875
20
24.745959375
30
0
42
0.3303545576459427
0
VERTEX
8
0
10
23.539440625
20
25.302981250000002
30
0
0
VERTEX
8
0
10
23.542740625
20
25.3365
30
0
0
VERTEX
8
0
10
30.48
20
25.3365
30
0
0
VERTEX
8
0
10
30.484903125000002
20
25.337278125
30
0
42
0.1787130343549712
0
VERTEX
8
0
10
30.524900000000002
20
25.3551
30
0
0
VERTEX
8
0
10
36.475300000000004
20
31.305500000000002
30
0
0
VERTEX
8
0
10
49.5037
20
31.305500000000002
30
0
0
VERTEX
8
0
10
51.9176875
20
28.8915125
30
0
0
VERTEX
8
0
10
51.89258125
20
28.889040625
30
0
42
0.9063462356499619
0
VERTEX
8
0
10
51.957156250000004
20
27.5746
30
0
0
VERTEX
8
0
10
53.34284375
20
27.5746
30
0
0
VERTEX
8
0
10
53.407418750000005
20
27.580959375000003
30
0
42
0.9063462356499619
0
VERTEX
8
0
10
53.34284375
20
28.895400000000002
30
0
0
VERTEX
8
0
10
52.0934
20
28.895400000000002
30
0
0
VERTEX
8
0
10
49.5749
20
31.4139
30
0
0
VERTEX
8
0
10
49.570887500000005
20
31.416815625
30
0
42
0.17873043370239752
0
VERTEX
8
0
10
49.53
20
31.4325
30
0
0
VERTEX
8
0
10
36.449000000000005
20
31.4325
30
0
0
VERTEX
8
0
10
36.444096875
20
31.431721875
30
0
42
0.1787130343549712
0
VERTEX
8
0
10
36.4041
20
31.4139
30
0
0
VERTEX
8
0
10
30.4537
20
25.4635
30
0
0
VERTEX
8
0
10
23.542740625
20
25.4635
30
0
0
VERTEX
8
0
10
23.539440625
20
25.497018750000002
30
0
42
0.3578051432831595
0
VERTEX
8
0
10
22.91784375
20
26.0604
30
0
0
VERTEX
8
0
10
21.53215625
20
26.0604
30
0
0
VERTEX
8
0
10
21.467581250000002
20
26.054040625000003
30
0
42
0.9063462356499619
0
VERTEX
8
0
10
21.53215625
20
24.739600000000003
30
0
0
VERTEX
8
0
10
22.91784375
20
24.739600000000003
30
0
0
SEQEND
0
POLYLINE
66
1
8
1_copper
10
0.0
20
0.0
30
0.0
70
1
0
VERTEX
8
0
10
38.22241875
20
45.065959375000006
30
0
42
0.9063462356499619
0
VERTEX
8
0
10
38.157843750000005
20
46.3804
30
0
0
VERTEX
8
0
10
36.77215625
20
46.3804
30
0
0
VERTEX
8
0
10
36.707581250000004
20
46.374040625
30
0
42
0.9063462356499619
0
VERTEX
8
0
10
36.77215625
20
45.0596
30
0
0
VERTEX
8
0
10
38.157843750000005
20
45.0596
30
0
0
SEQEND
0
POLYLINE
66
1
8
16_copper
10
0.0
20
0.0
30
0.0
70
1
0
VERTEX
8
0
10
17.784903125
20
30.417278125000003
30
0
42
0.1787130343549712
0
VERTEX
8
0
10
17.8249
20
30.435100000000002
30
0
0
VERTEX
8
0
10
21.997300000000003
20
34.6075
30
0
0
VERTEX
8
0
10
26.416
20
34.6075
30
0
0
VERTEX
8
0
10
26.420903125000002
20
34.608278125
30
0
42
0.1787130343549712
0
VERTEX
8
0
10
26.460900000000002
20
34.6261
30
0
0
VERTEX
8
0
10
36.894400000000005
20
45.0596
30
0
0
VERTEX
8
0
10
38.157843750000005
20
45.0596
30
0
0
VERTEX
8
0
10
38.22241875
20
45.065959375000006
30
0
42
0.9063462356499619
0
VERTEX
8
0
10
38.157843750000005
20
46.3804
30
0
0
VERTEX
8
0
10
36.77215625
20
46.3804
30
0
0
VERTEX
8
0
10
36.707581250000004
20
46.374040625
30
0
42
0.8626046433002116
0
VERTEX
8
0
10
36.707581250000004
20
45.065959375000006
30
0
0
VERTEX
8
0
10
36.719940625
20
45.064740625
30
0
0
VERTEX
8
0
10
26.3897
20
34.734500000000004
30
0
0
VERTEX
8
0
10
21.971
20
34.734500000000004
30
0
0
VERTEX
8
0
10
21.966096875
20
34.733721875
30
0
42
0.1787130343549712
0
VERTEX
8
0
10
21.9261
20
34.715900000000005
30
0
0
VERTEX
8
0
10
17.753700000000002
20
30.5435
30
0
0
VERTEX
8
0
10
17.145
20
30.5435
30
0
0
VERTEX
8
0
10
17.125384375
20
30.54039375
30
0
42
0.8541292147630184
0
VERTEX
8
0
10
17.145
20
30.416500000000003
30
0
0
VERTEX
8
0
10
17.78
20
30.416500000000003
30
0
0
SEQEND
0
POLYLINE
66
1
8
1_copper
10
0.0
20
0.0
30
0.0
70
1
0
VERTEX
8
0
10
22.98241875
20
45.065959375000006
30
0
42
0.9063462356499619
0
VERTEX
8
0
10
22.91784375
20
46.3804
30
0
0
VERTEX
8
0
10
21.53215625
20
46.3804
30
0
0
VERTEX
8
0
10
21.467581250000002
20
46.374040625
30
0
42
0.9063462356499619
0
VERTEX
8
0
10
21.53215625
20
45.0596
30
0
0
VERTEX
8
0
10
22.91784375
20
45.0596
30
0
0
SEQEND
0
POLYLINE
66
1
8
16_copper
10
0.0
20
0.0
30
0.0
70
1
0
VERTEX
8
0
10
17.164584375
20
32.95959375
30
0
42
0.3250968986799817
0
VERTEX
8
0
10
17.2085
20
33.02
30
0
0
VERTEX
8
0
10
17.2085
20
33.8827
30
0
0
VERTEX
8
0
10
20.745900000000002
20
37.420100000000005
30
0
0
VERTEX
8
0
10
20.748815625000002
20
37.4241125
30
0
42
0.17873043370239752
0
VERTEX
8
0
10
20.7645
20
37.465
30
0
0
VERTEX
8
0
10
20.7645
20
44.1697
30
0
0
VERTEX
8
0
10
21.654400000000003
20
45.0596
30
0
0
VERTEX
8
0
10
22.91784375
20
45.0596
30
0
0
VERTEX
8
0
10
22.98241875
20
45.065959375000006
30
0
42
0.9063462356499619
0
VERTEX
8
0
10
22.91784375
20
46.3804
30
0
0
VERTEX
8
0
10
21.53215625
20
46.3804
30
0
0
VERTEX
8
0
10
21.467581250000002
20
46.374040625
30
0
42
0.8626046433002116
0
VERTEX
8
0
10
21.467581250000002
20
45.065959375000006
30
0
0
VERTEX
8
0
10
21.479940625
20
45.064740625
30
0
0
VERTEX
8
0
10
20.656100000000002
20
44.2409
30
0
0
VERTEX
8
0
10
20.653184375000002
20
44.2368875
30
0
42
0.17873043370239752
0
VERTEX
8
0
10
20.6375
20
44.196000000000005
30
0
0
VERTEX
8
0
10
20.6375
20
37.4913
30
0
0
VERTEX
8
0
10
17.1001
20
33.953900000000004
30
0
0
VERTEX
8
0
10
17.097184375
20
33.9498875
30
0
42
0.17873043370239752
0
VERTEX
8
0
10
17.081500000000002
20
33.909
30
0
0
VERTEX
8
0
10
17.081500000000002
20
33.02
30
0
0
VERTEX
8
0
10
17.08460625
20
33.000384375
30
0
42
0.32480110023365555
0
VERTEX
8
0
10
17.144965625
20
32.9565
30
0
0
SEQEND
0
POLYLINE
66
1
8
1_copper
10
0.0
20
0.0
30
0.0
70
1
0
VERTEX
8
0
10
20.324903125000002
20
35.497278125
30
0
42
0.1787130343549712
0
VERTEX
8
0
10
20.364900000000002
20
35.515100000000004
30
0
0
VERTEX
8
0
10
21.235300000000002
20
36.3855
30
0
0
VERTEX
8
0
10
33.274
20
36.3855
30
0
0
VERTEX
8
0
10
33.278903125
20
36.386278125000004
30
0
42
0.1787130343549712
0
VERTEX
8
0
10
33.3189
20
36.4041
30
0
0
VERTEX
8
0
10
36.894400000000005
20
39.979600000000005
30
0
0
VERTEX
8
0
10
38.157843750000005
20
39.979600000000005
30
0
0
VERTEX
8
0
10
38.22241875
20
39.985959375
30
0
42
0.9063462356499619
0
VERTEX
8
0
10
38.157843750000005
20
41.3004
30
0
0
VERTEX
8
0
10
36.77215625
20
41.3004
30
0
0
VERTEX
8
0
10
36.707581250000004
20
41.294040625
30
0
42
0.8626046433002116
0
VERTEX
8
0
10
36.707581250000004
20
39.985959375
30
0
0
VERTEX
8
0
10
36.719940625
20
39.984740625
30
0
0
VERTEX
8
0
10
33.2477
20
36.5125
30
0
0
VERTEX
8
0
10
21.209
20
36.5125
30
0
0
VERTEX
8
0
10
21.204096875
20
36.511721875
30
0
42
0.1787130343549712
0
VERTEX
8
0
10
21.1641
20
36.493900000000004
30
0
0
VERTEX
8
0
10
20.2937
20
35.6235
30
0
0
VERTEX
8
0
10
17.145
20
35.6235
30
0
0
VERTEX
8
0
10
17.125384375
20
35.620393750000005
30
0
42
0.8541292147630184
0
VERTEX
8
0
10
17.145
20
35.496500000000005
30
0
0
VERTEX
8
0
10
20.32
20
35.496500000000005
30
0
0
SEQEND
0
POLYLINE
66
1
8
16_copper
10
0.0
20
0.0
30
0.0
70
1
0
VERTEX
8
0
10
38.22241875
20
39.985959375
30
0
42
0.9063462356499619
0
VERTEX
8
0
10
38.157843750000005
20
41.3004
30
0
0
VERTEX
8
0
10
36.77215625
20
41.3004
30
0
0
VERTEX
8
0
10
36.707581250000004
20
41.294040625
30
0
42
0.9063462356499619
0
VERTEX
8
0
10
36.77215625
20
39.979600000000005
30
0
0
VERTEX
8
0
10
38.157843750000005
20
39.979600000000005
30
0
0
SEQEND
0
POLYLINE
66
1
8
1_copper
10
0.0
20
0.0
30
0.0
70
1
0
VERTEX
8
0
10
22.98241875
20
6.965959375000001
30
0
42
0.9063462356499619
0
VERTEX
8
0
10
22.91784375
20
8.2804
30
0
0
VERTEX
8
0
10
21.53215625
20
8.2804
30
0
0
VERTEX
8
0
10
21.467581250000002
20
8.274040625
30
0
42
0.9063462356499619
0
VERTEX
8
0
10
21.53215625
20
6.9596
30
0
0
VERTEX
8
0
10
22.91784375
20
6.9596
30
0
0
SEQEND
0
POLYLINE
66
1
8
16_copper
10
0.0
20
0.0
30
0.0
70
1
0
VERTEX
8
0
10
22.98241875
20
6.965959375000001
30
0
42
0.9063462356499619
0
VERTEX
8
0
10
22.91784375
20
8.2804
30
0
0
VERTEX
8
0
10
21.654400000000003
20
8.2804
30
0
0
VERTEX
8
0
10
15.557500000000001
20
14.3773
30
0
0
VERTEX
8
0
10
15.557500000000001
20
35.5337
30
0
0
VERTEX
8
0
10
17.1899
20
37.1661
30
0
0
VERTEX
8
0
10
17.192815625
20
37.1701125
30
0
42
0.17873043370239752
0
VERTEX
8
0
10
17.2085
20
37.211
30
0
0
VERTEX
8
0
10
17.2085
20
38.1
30
0
0
VERTEX
8
0
10
17.205393750000002
20
38.119615625
30
0
42
0.8541292147630184
0
VERTEX
8
0
10
17.081500000000002
20
38.1
30
0
0
VERTEX
8
0
10
17.081500000000002
20
37.237300000000005
30
0
0
VERTEX
8
0
10
15.449100000000001
20
35.6049
30
0
0
VERTEX
8
0
10
15.446184375000001
20
35.6008875
30
0
42
0.17873043370239752
0
VERTEX
8
0
10
15.4305
20
35.56
30
0
0
VERTEX
8
0
10
15.4305
20
14.351
30
0
0
VERTEX
8
0
10
15.431278125
20
14.346096875
30
0
42
0.1787130343549712
0
VERTEX
8
0
10
15.449100000000001
20
14.3061
30
0
0
VERTEX
8
0
10
21.479940625
20
8.275259375000001
30
0
0
VERTEX
8
0
10
21.467581250000002
20
8.274040625
30
0
42
0.9063462356499619
0
VERTEX
8
0
10
21.53215625
20
6.9596
30
0
0
VERTEX
8
0
10
22.91784375
20
6.9596
30
0
0
SEQEND
0
POLYLINE
66
1
8
1_copper
10
0.0
20
0.0
30
0.0
70
1
0
VERTEX
8
0
10
22.98241875
20
39.985959375
30
0
42
0.9063462356499619
0
VERTEX
8
0
10
22.91784375
20
41.3004
30
0
0
VERTEX
8
0
10
21.53215625
20
41.3004
30
0
0
VERTEX
8
0
10
21.467581250000002
20
41.294040625
30
0
42
0.3303545576459427
0
VERTEX
8
0
10
20.910559375000002
20
40.737018750000004
30
0
0
VERTEX
8
0
10
20.907259375000002
20
40.703500000000005
30
0
0
VERTEX
8
0
10
17.145
20
40.703500000000005
30
0
0
VERTEX
8
0
10
17.125384375
20
40.70039375
30
0
42
0.8541292147630184
0
VERTEX
8
0
10
17.145
20
40.5765
30
0
0
VERTEX
8
0
10
20.907259375000002
20
40.5765
30
0
0
VERTEX
8
0
10
20.910559375000002
20
40.542981250000004
30
0
42
0.3578051432831595
0
VERTEX
8
0
10
21.53215625
20
39.979600000000005
30
0
0
VERTEX
8
0
10
22.91784375
20
39.979600000000005
30
0
0
SEQEND
0
POLYLINE
66
1
8
16_copper
10
0.0
20
0.0
30
0.0
70
1
0
VERTEX
8
0
10
22.98241875
20
39.985959375
30
0
42
0.9063462356499619
0
VERTEX
8
0
10
22.91784375
20
41.3004
30
0
0
VERTEX
8
0
10
21.53215625
20
41.3004
30
0
0
VERTEX
8
0
10
21.467581250000002
20
41.294040625
30
0
42
0.9063462356499619
0
VERTEX
8
0
10
21.53215625
20
39.979600000000005
30
0
0
VERTEX
8
0
10
22.91784375
20
39.979600000000005
30
0
0
SEQEND
0
POLYLINE
66
1
8
1_copper
10
0.0
20
0.0
30
0.0
70
1
0
VERTEX
8
0
10
38.22241875
20
4.425959375000001
30
0
42
0.9063462356499619
0
VERTEX
8
0
10
38.157843750000005
20
5.7404
30
0
0
VERTEX
8
0
10
36.77215625
20
5.7404
30
0
0
VERTEX
8
0
10
36.707581250000004
20
5.7340406250000004
30
0
42
0.9063462356499619
0
VERTEX
8
0
10
36.77215625
20
4.4196
30
0
0
VERTEX
8
0
10
38.157843750000005
20
4.4196
30
0
0
SEQEND
0
POLYLINE
66
1
8
16_copper
10
0.0
20
0.0
30
0.0
70
1
0
VERTEX
8
0
10
38.22241875
20
4.425959375000001
30
0
42
0.9063462356499619
0
VERTEX
8
0
10
38.157843750000005
20
5.7404
30
0
0
VERTEX
8
0
10
36.894400000000005
20
5.7404
30
0
0
VERTEX
8
0
10
34.0809
20
8.5539
30
0
0
VERTEX
8
0
10
34.076887500000005
20
8.556815625
30
0
42
0.17873043370239752
0
VERTEX
8
0
10
34.036
20
8.5725
30
0
0
VERTEX
8
0
10
21.997300000000003
20
8.5725
30
0
0
VERTEX
8
0
10
15.8115
20
14.7583
30
0
0
VERTEX
8
0
10
15.8115
20
35.4067
30
0
0
VERTEX
8
0
10
18.0789
20
37.6741
30
0
0
VERTEX
8
0
10
18.081815625
20
37.678112500000005
30
0
42
0.17873043370239752
0
VERTEX
8
0
10
18.0975
20
37.719
30
0
0
VERTEX
8
0
10
18.0975
20
41.021
30
0
0
VERTEX
8
0
10
18.096721875
20
41.025903125
30
0
42
0.1787130343549712
0
VERTEX
8
0
10
18.0789
20
41.0659
30
0
0
VERTEX
8
0
10
17.2085
20
41.9363
30
0
0
VERTEX
8
0
10
17.2085
20
43.18
30
0
0
VERTEX
8
0
10
17.205393750000002
20
43.199615625
30
0
42
0.8541292147630184
0
VERTEX
8
0
10
17.081500000000002
20
43.18
30
0
0
VERTEX
8
0
10
17.081500000000002
20
41.910000000000004
30
0
0
VERTEX
8
0
10
17.082278125000002
20
41.905096875000005
30
0
42
0.1787130343549712
0
VERTEX
8
0
10
17.1001
20
41.865100000000005
30
0
0
VERTEX
8
0
10
17.9705
20
40.9947
30
0
0
VERTEX
8
0
10
17.9705
20
37.7453
30
0
0
VERTEX
8
0
10
15.703100000000001
20
35.4779
30
0
0
VERTEX
8
0
10
15.700184375000001
20
35.473887500000004
30
0
42
0.17873043370239752
0
VERTEX
8
0
10
15.6845
20
35.433
30
0
0
VERTEX
8
0
10
15.6845
20
14.732000000000001
30
0
0
VERTEX
8
0
10
15.685278125
20
14.727096875
30
0
42
0.1787130343549712
0
VERTEX
8
0
10
15.703100000000001
20
14.687100000000001
30
0
0
VERTEX
8
0
10
21.9261
20
8.4641
30
0
0
VERTEX
8
0
10
21.9301125
20
8.461184375
30
0
42
0.17873043370239752
0
VERTEX
8
0
10
21.971
20
8.445500000000001
30
0
0
VERTEX
8
0
10
34.0097
20
8.445500000000001
30
0
0
VERTEX
8
0
10
36.719940625
20
5.735259375
30
0
0
VERTEX
8
0
10
36.707581250000004
20
5.7340406250000004
30
0
42
0.9063462356499619
0
VERTEX
8
0
10
36.77215625
20
4.4196
30
0
0
VERTEX
8
0
10
38.157843750000005
20
4.4196
30
0
0
SEQEND
0
POLYLINE
66
1
8
1_copper
10
0.0
20
0.0
30
0.0
70
1
0
VERTEX
8
0
10
38.22241875
20
6.965959375000001
30
0
42
0.9063462356499619
0
VERTEX
8
0
10
38.157843750000005
20
8.2804
30
0
0
VERTEX
8
0
10
36.77215625
20
8.2804
30
0
0
VERTEX
8
0
10
36.707581250000004
20
8.274040625
30
0
42
0.9063462356499619
0
VERTEX
8
0
10
36.77215625
20
6.9596
30
0
0
VERTEX
8
0
10
38.157843750000005
20
6.9596
30
0
0
SEQEND
0
POLYLINE
66
1
8
16_copper
10
0.0
20
0.0
30
0.0
70
1
0
VERTEX
8
0
10
38.22241875
20
6.965959375000001
30
0
42
0.9063462356499619
0
VERTEX
8
0
10
38.157843750000005
20
8.2804
30
0
0
VERTEX
8
0
10
36.894400000000005
20
8.2804
30
0
0
VERTEX
8
0
10
34.0809
20
11.0939
30
0
0
VERTEX
8
0
10
34.076887500000005
20
11.096815625000001
30
0
42
0.17873043370239752
0
VERTEX
8
0
10
34.036
20
11.1125
30
0
0
VERTEX
8
0
10
21.616300000000003
20
11.1125
30
0
0
VERTEX
8
0
10
20.256500000000003
20
12.4723
30
0
0
VERTEX
8
0
10
20.256500000000003
20
26.67
30
0
0
VERTEX
8
0
10
20.255721875000003
20
26.674903125
30
0
42
0.1787130343549712
0
VERTEX
8
0
10
20.2379
20
26.7149
30
0
0
VERTEX
8
0
10
18.0789
20
28.873900000000003
30
0
0
VERTEX
8
0
10
18.0748875
20
28.876815625000003
30
0
42
0.17873043370239752
0
VERTEX
8
0
10
18.034000000000002
20
28.892500000000002
30
0
0
VERTEX
8
0
10
17.171300000000002
20
28.892500000000002
30
0
0
VERTEX
8
0
10
16.0655
20
29.9983
30
0
0
VERTEX
8
0
10
16.0655
20
33.1207
30
0
0
VERTEX
8
0
10
18.332900000000002
20
35.3881
30
0
0
VERTEX
8
0
10
18.335815625000002
20
35.3921125
30
0
42
0.17873043370239752
0
VERTEX
8
0
10
18.3515
20
35.433
30
0
0
VERTEX
8
0
10
18.3515
20
43.307
30
0
0
VERTEX
8
0
10
18.350721875
20
43.311903125
30
0
42
0.1787130343549712
0
VERTEX
8
0
10
18.332900000000002
20
43.3519
30
0
0
VERTEX
8
0
10
17.2085
20
44.4763
30
0
0
VERTEX
8
0
10
17.2085
20
45.72
30
0
0
VERTEX
8
0
10
17.205393750000002
20
45.739615625
30
0
42
0.8541292147630184
0
VERTEX
8
0
10
17.081500000000002
20
45.72
30
0
0
VERTEX
8
0
10
17.081500000000002
20
44.45
30
0
0
VERTEX
8
0
10
17.082278125000002
20
44.445096875000004
30
0
42
0.1787130343549712
0
VERTEX
8
0
10
17.1001
20
44.405100000000004
30
0
0
VERTEX
8
0
10
18.224500000000003
20
43.2807
30
0
0
VERTEX
8
0
10
18.224500000000003
20
35.4593
30
0
0
VERTEX
8
0
10
15.9571
20
33.191900000000004
30
0
0
VERTEX
8
0
10
15.954184375
20
33.1878875
30
0
42
0.17873043370239752
0
VERTEX
8
0
10
15.938500000000001
20
33.147
30
0
0
VERTEX
8
0
10
15.938500000000001
20
29.972
30
0
0
VERTEX
8
0
10
15.939278125000001
20
29.967096875000003
30
0
42
0.1787130343549712
0
VERTEX
8
0
10
15.9571
20
29.927100000000003
30
0
0
VERTEX
8
0
10
17.1001
20
28.784100000000002
30
0
0
VERTEX
8
0
10
17.1041125
20
28.781184375000002
30
0
42
0.17873043370239752
0
VERTEX
8
0
10
17.145
20
28.765500000000003
30
0
0
VERTEX
8
0
10
18.0077
20
28.765500000000003
30
0
0
VERTEX
8
0
10
20.1295
20
26.643700000000003
30
0
0
VERTEX
8
0
10
20.1295
20
12.446
30
0
0
VERTEX
8
0
10
20.130278125
20
12.441096875000001
30
0
42
0.1787130343549712
0
VERTEX
8
0
10
20.1481
20
12.401100000000001
30
0
0
VERTEX
8
0
10
21.5451
20
11.004100000000001
30
0
0
VERTEX
8
0
10
21.5491125
20
11.001184375000001
30
0
42
0.17873043370239752
0
VERTEX
8
0
10
21.59
20
10.9855
30
0
0
VERTEX
8
0
10
34.0097
20
10.9855
30
0
0
VERTEX
8
0
10
36.719940625
20
8.275259375000001
30
0
0
VERTEX
8
0
10
36.707581250000004
20
8.274040625
30
0
42
0.9063462356499619
0
VERTEX
8
0
10
36.77215625
20
6.9596
30
0
0
VERTEX
8
0
10
38.157843750000005
20
6.9596
30
0
0
SEQEND
0
POLYLINE
66
1
8
1_copper
10
0.0
20
0.0
30
0.0
70
1
0
VERTEX
8
0
10
22.98241875
20
42.525959375
30
0
42
0.9063462356499619
0
VERTEX
8
0
10
22.91784375
20
43.8404
30
0
0
VERTEX
8
0
10
21.654400000000003
20
43.8404
30
0
0
VERTEX
8
0
10
17.1899
20
48.3049
30
0
0
VERTEX
8
0
10
17.173834375000002
20
48.316575
30
0
42
0.8541290555586456
0
VERTEX
8
0
10
17.1001
20
48.2151
30
0
0
VERTEX
8
0
10
21.479940625
20
43.835259375
30
0
0
VERTEX
8
0
10
21.467581250000002
20
43.834040625
30
0
42
0.9063462356499619
0
VERTEX
8
0
10
21.53215625
20
42.519600000000004
30
0
0
VERTEX
8
0
10
22.91784375
20
42.519600000000004
30
0
0
SEQEND
0
POLYLINE
66
1
8
16_copper
10
0.0
20
0.0
30
0.0
70
1
0
VERTEX
8
0
10
22.98241875
20
42.525959375
30
0
42
0.9063462356499619
0
VERTEX
8
0
10
22.91784375
20
43.8404
30
0
0
VERTEX
8
0
10
21.53215625
20
43.8404
30
0
0
VERTEX
8
0
10
21.467581250000002
20
43.834040625
30
0
42
0.9063462356499619
0
VERTEX
8
0
10
21.53215625
20
42.519600000000004
30
0
0
VERTEX
8
0
10
22.91784375
20
42.519600000000004
30
0
0
SEQEND
0
POLYLINE
66
1
8
1_copper
10
0.0
20
0.0
30
0.0
70
1
0
VERTEX
8
0
10
38.22241875
20
9.505959375
30
0
42
0.9063462356499619
0
VERTEX
8
0
10
38.157843750000005
20
10.820400000000001
30
0
0
VERTEX
8
0
10
36.77215625
20
10.820400000000001
30
0
0
VERTEX
8
0
10
36.707581250000004
20
10.814040625
30
0
42
0.9063462356499619
0
VERTEX
8
0
10
36.77215625
20
9.499600000000001
30
0
0
VERTEX
8
0
10
38.157843750000005
20
9.499600000000001
30
0
0
SEQEND
0
POLYLINE
66
1
8
16_copper
10
0.0
20
0.0
30
0.0
70
1
0
VERTEX
8
0
10
38.22241875
20
9.505959375
30
0
42
0.9063462356499619
0
VERTEX
8
0
10
38.157843750000005
20
10.820400000000001
30
0
0
VERTEX
8
0
10
36.894400000000005
20
10.820400000000001
30
0
0
VERTEX
8
0
10
36.3669
20
11.347900000000001
30
0
0
VERTEX
8
0
10
36.3628875
20
11.350815625000001
30
0
42
0.17873043370239752
0
VERTEX
8
0
10
36.322
20
11.3665
30
0
0
VERTEX
8
0
10
21.7433
20
11.3665
30
0
0
VERTEX
8
0
10
20.5105
20
12.599300000000001
30
0
0
VERTEX
8
0
10
20.5105
20
26.797
30
0
0
VERTEX
8
0
10
20.509721875
20
26.801903125000003
30
0
42
0.1787130343549712
0
VERTEX
8
0
10
20.4919
20
26.841900000000003
30
0
0
VERTEX
8
0
10
18.2059
20
29.1279
30
0
0
VERTEX
8
0
10
18.2018875
20
29.130815625
30
0
42
0.17873043370239752
0
VERTEX
8
0
10
18.161
20
29.1465
30
0
0
VERTEX
8
0
10
17.2983
20
29.1465
30
0
0
VERTEX
8
0
10
16.3195
20
30.125300000000003
30
0
0
VERTEX
8
0
10
16.3195
20
30.8347
30
0
0
VERTEX
8
0
10
18.0789
20
32.594100000000005
30
0
0
VERTEX
8
0
10
18.081815625
20
32.5981125
30
0
42
0.17873043370239752
0
VERTEX
8
0
10
18.0975
20
32.639
30
0
0
VERTEX
8
0
10
18.0975
20
33.2477
30
0
0
VERTEX
8
0
10
21.235300000000002
20
36.3855
30
0
0
VERTEX
8
0
10
22.479000000000003
20
36.3855
30
0
0
VERTEX
8
0
10
22.483903125
20
36.386278125000004
30
0
42
0.1787130343549712
0
VERTEX
8
0
10
22.5239
20
36.4041
30
0
0
VERTEX
8
0
10
23.7939
20
37.6741
30
0
0
VERTEX
8
0
10
23.796815625
20
37.678112500000005
30
0
42
0.17873043370239752
0
VERTEX
8
0
10
23.8125
20
37.719
30
0
0
VERTEX
8
0
10
23.8125
20
48.641000000000005
30
0
0
VERTEX
8
0
10
23.811721875
20
48.645903125000004
30
0
42
0.1787130343549712
0
VERTEX
8
0
10
23.7939
20
48.685900000000004
30
0
0
VERTEX
8
0
10
23.2859
20
49.1939
30
0
0
VERTEX
8
0
10
23.2818875
20
49.196815625
30
0
42
0.17873043370239752
0
VERTEX
8
0
10
23.241
20
49.212500000000006
30
0
0
VERTEX
8
0
10
21.997300000000003
20
49.212500000000006
30
0
0
VERTEX
8
0
10
20.364900000000002
20
50.8449
30
0
0
VERTEX
8
0
10
20.3608875
20
50.847815625
30
0
42
0.17873043370239752
0
VERTEX
8
0
10
20.32
20
50.8635
30
0
0
VERTEX
8
0
10
17.145
20
50.8635
30
0
0
VERTEX
8
0
10
17.125384375
20
50.86039375
30
0
42
0.8541292147630184
0
VERTEX
8
0
10
17.145
20
50.7365
30
0
0
VERTEX
8
0
10
20.2937
20
50.7365
30
0
0
VERTEX
8
0
10
21.9261
20
49.1041
30
0
0
VERTEX
8
0
10
21.9301125
20
49.101184375
30
0
42
0.17873043370239752
0
VERTEX
8
0
10
21.971
20
49.0855
30
0
0
VERTEX
8
0
10
23.2147
20
49.0855
30
0
0
VERTEX
8
0
10
23.6855
20
48.6147
30
0
0
VERTEX
8
0
10
23.6855
20
37.7453
30
0
0
VERTEX
8
0
10
22.4527
20
36.5125
30
0
0
VERTEX
8
0
10
21.209
20
36.5125
30
0
0
VERTEX
8
0
10
21.204096875
20
36.511721875
30
0
42
0.1787130343549712
0
VERTEX
8
0
10
21.1641
20
36.493900000000004
30
0
0
VERTEX
8
0
10
17.9891
20
33.3189
30
0
0
VERTEX
8
0
10
17.986184375
20
33.314887500000005
30
0
42
0.17873043370239752
0
VERTEX
8
0
10
17.9705
20
33.274
30
0
0
VERTEX
8
0
10
17.9705
20
32.6653
30
0
0
VERTEX
8
0
10
16.211100000000002
20
30.905900000000003
30
0
0
VERTEX
8
0
10
16.208184375000002
20
30.9018875
30
0
42
0.17873043370239752
0
VERTEX
8
0
10
16.1925
20
30.861
30
0
0
VERTEX
8
0
10
16.1925
20
30.099
30
0
0
VERTEX
8
0
10
16.193278125
20
30.094096875
30
0
42
0.1787130343549712
0
VERTEX
8
0
10
16.211100000000002
20
30.054100000000002
30
0
0
VERTEX
8
0
10
17.2271
20
29.0381
30
0
0
VERTEX
8
0
10
17.231112500000002
20
29.035184375
30
0
42
0.17873043370239752
0
VERTEX
8
0
10
17.272000000000002
20
29.0195
30
0
0
VERTEX
8
0
10
18.134700000000002
20
29.0195
30
0
0
VERTEX
8
0
10
20.3835
20
26.7707
30
0
0
VERTEX
8
0
10
20.3835
20
12.573
30
0
0
VERTEX
8
0
10
20.384278125
20
12.568096875
30
0
42
0.1787130343549712
0
VERTEX
8
0
10
20.4021
20
12.5281
30
0
0
VERTEX
8
0
10
21.6721
20
11.2581
30
0
0
VERTEX
8
0
10
21.676112500000002
20
11.255184375
30
0
42
0.17873043370239752
0
VERTEX
8
0
10
21.717000000000002
20
11.239500000000001
30
0
0
VERTEX
8
0
10
36.295700000000004
20
11.239500000000001
30
0
0
VERTEX
8
0
10
36.719940625
20
10.815259375
30
0
0
VERTEX
8
0
10
36.707581250000004
20
10.814040625
30
0
42
0.9063462356499619
0
VERTEX
8
0
10
36.77215625
20
9.499600000000001
30
0
0
VERTEX
8
0
10
38.157843750000005
20
9.499600000000001
30
0
0
SEQEND
0
POLYLINE
66
1
8
1_copper
10
0.0
20
0.0
30
0.0
70
1
0
VERTEX
8
0
10
2.559
20
51.454
30
0
0
VERTEX
8
0
10
1.2510000000000001
20
51.454
30
0
0
VERTEX
8
0
10
1.2510000000000001
20
50.146
30
0
0
VERTEX
8
0
10
2.559
20
50.146
30
0
0
SEQEND
0
POLYLINE
66
1
8
1_copper
10
0.0
20
0.0
30
0.0
70
1
0
VERTEX
8
0
10
38.22241875
20
12.045959375
30
0
42
0.9063462356499619
0
VERTEX
8
0
10
38.157843750000005
20
13.3604
30
0
0
VERTEX
8
0
10
36.77215625
20
13.3604
30
0
0
VERTEX
8
0
10
36.707581250000004
20
13.354040625000001
30
0
42
0.9063462356499619
0
VERTEX
8
0
10
36.77215625
20
12.0396
30
0
0
VERTEX
8
0
10
38.157843750000005
20
12.0396
30
0
0
SEQEND
0
POLYLINE
66
1
8
16_copper
10
0.0
20
0.0
30
0.0
70
1
0
VERTEX
8
0
10
38.485903125
20
4.1282781250000005
30
0
42
0.1787130343549712
0
VERTEX
8
0
10
38.5259
20
4.146100000000001
30
0
0
VERTEX
8
0
10
39.0339
20
4.654100000000001
30
0
0
VERTEX
8
0
10
39.036815625
20
4.6581125000000005
30
0
42
0.17873043370239752
0
VERTEX
8
0
10
39.0525
20
4.699
30
0
0
VERTEX
8
0
10
39.0525
20
11.176
30
0
0
VERTEX
8
0
10
39.051721875
20
11.180903125
30
0
42
0.1787130343549712
0
VERTEX
8
0
10
39.0339
20
11.2209
30
0
0
VERTEX
8
0
10
38.210059375
20
12.044740625000001
30
0
0
VERTEX
8
0
10
38.22241875
20
12.045959375
30
0
42
0.9063462356499619
0
VERTEX
8
0
10
38.157843750000005
20
13.3604
30
0
0
VERTEX
8
0
10
36.77215625
20
13.3604
30
0
0
VERTEX
8
0
10
36.707581250000004
20
13.354040625000001
30
0
42
0.9063462356499619
0
VERTEX
8
0
10
36.77215625
20
12.0396
30
0
0
VERTEX
8
0
10
38.0356
20
12.0396
30
0
0
VERTEX
8
0
10
38.9255
20
11.149700000000001
30
0
0
VERTEX
8
0
10
38.9255
20
4.7253
30
0
0
VERTEX
8
0
10
38.4547
20
4.2545
30
0
0
VERTEX
8
0
10
36.475300000000004
20
4.2545
30
0
0
VERTEX
8
0
10
34.715900000000005
20
6.0139000000000005
30
0
0
VERTEX
8
0
10
34.7118875
20
6.0168156250000004
30
0
42
0.17873043370239752
0
VERTEX
8
0
10
34.671
20
6.032500000000001
30
0
0
VERTEX
8
0
10
21.997300000000003
20
6.032500000000001
30
0
0
VERTEX
8
0
10
20.7645
20
7.265300000000001
30
0
0
VERTEX
8
0
10
20.7645
20
7.8740000000000006
30
0
0
VERTEX
8
0
10
20.763721875
20
7.878903125000001
30
0
42
0.1787130343549712
0
VERTEX
8
0
10
20.745900000000002
20
7.918900000000001
30
0
0
VERTEX
8
0
10
1.0795000000000001
20
27.5853
30
0
0
VERTEX
8
0
10
1.0795000000000001
20
48.6147
30
0
0
VERTEX
8
0
10
1.9499000000000002
20
49.4851
30
0
0
VERTEX
8
0
10
1.9528156250000002
20
49.489112500000005
30
0
42
0.17873043370239752
0
VERTEX
8
0
10
1.9685000000000001
20
49.53
30
0
0
VERTEX
8
0
10
1.9685000000000001
20
50.146
30
0
0
VERTEX
8
0
10
2.559
20
50.146
30
0
0
VERTEX
8
0
10
2.559
20
51.454
30
0
0
VERTEX
8
0
10
1.2510000000000001
20
51.454
30
0
0
VERTEX
8
0
10
1.2510000000000001
20
50.146
30
0
0
VERTEX
8
0
10
1.8415000000000001
20
50.146
30
0
0
VERTEX
8
0
10
1.8415000000000001
20
49.5563
30
0
0
VERTEX
8
0
10
0.9711000000000001
20
48.685900000000004
30
0
0
VERTEX
8
0
10
0.9681843750000001
20
48.6818875
30
0
42
0.17873043370239752
0
VERTEX
8
0
10
0.9525
20
48.641000000000005
30
0
0
VERTEX
8
0
10
0.9525
20
27.559
30
0
0
VERTEX
8
0
10
0.9532781250000001
20
27.554096875000003
30
0
42
0.1787130343549712
0
VERTEX
8
0
10
0.9711000000000001
20
27.514100000000003
30
0
0
VERTEX
8
0
10
20.6375
20
7.847700000000001
30
0
0
VERTEX
8
0
10
20.6375
20
7.239000000000001
30
0
0
VERTEX
8
0
10
20.638278125
20
7.2340968750000005
30
0
42
0.1787130343549712
0
VERTEX
8
0
10
20.656100000000002
20
7.194100000000001
30
0
0
VERTEX
8
0
10
21.9261
20
5.9241
30
0
0
VERTEX
8
0
10
21.9301125
20
5.921184375
30
0
42
0.17873043370239752
0
VERTEX
8
0
10
21.971
20
5.9055
30
0
0
VERTEX
8
0
10
34.6447
20
5.9055
30
0
0
VERTEX
8
0
10
36.4041
20
4.146100000000001
30
0
0
VERTEX
8
0
10
36.4081125
20
4.143184375000001
30
0
42
0.17873043370239752
0
VERTEX
8
0
10
36.449000000000005
20
4.1275
30
0
0
VERTEX
8
0
10
38.481
20
4.1275
30
0
0
SEQEND
0
POLYLINE
66
1
8
1_copper
10
0.0
20
0.0
30
0.0
70
1
0
VERTEX
8
0
10
22.98241875
20
47.605959375000005
30
0
42
0.9063462356499619
0
VERTEX
8
0
10
22.91784375
20
48.9204
30
0
0
VERTEX
8
0
10
21.53215625
20
48.9204
30
0
0
VERTEX
8
0
10
21.467581250000002
20
48.914040625000005
30
0
42
0.9063462356499619
0
VERTEX
8
0
10
21.53215625
20
47.5996
30
0
0
VERTEX
8
0
10
22.91784375
20
47.5996
30
0
0
SEQEND
0
POLYLINE
66
1
8
16_copper
10
0.0
20
0.0
30
0.0
70
1
0
VERTEX
8
0
10
13.339903125000001
20
43.117278125
30
0
42
0.1787130343549712
0
VERTEX
8
0
10
13.379900000000001
20
43.1351
30
0
0
VERTEX
8
0
10
18.441300000000002
20
48.1965
30
0
0
VERTEX
8
0
10
20.907259375000002
20
48.1965
30
0
0
VERTEX
8
0
10
20.910559375000002
20
48.16298125
30
0
42
0.3578051432831595
0
VERTEX
8
0
10
21.53215625
20
47.5996
30
0
0
VERTEX
8
0
10
22.91784375
20
47.5996
30
0
0
VERTEX
8
0
10
22.98241875
20
47.605959375000005
30
0
42
0.9063462356499619
0
VERTEX
8
0
10
22.91784375
20
48.9204
30
0
0
VERTEX
8
0
10
21.53215625
20
48.9204
30
0
0
VERTEX
8
0
10
21.467581250000002
20
48.914040625000005
30
0
42
0.3303545576459427
0
VERTEX
8
0
10
20.910559375000002
20
48.35701875
30
0
0
VERTEX
8
0
10
20.907259375000002
20
48.3235
30
0
0
VERTEX
8
0
10
18.415
20
48.3235
30
0
0
VERTEX
8
0
10
18.410096875
20
48.322721875
30
0
42
0.1787130343549712
0
VERTEX
8
0
10
18.3701
20
48.3049
30
0
0
VERTEX
8
0
10
13.3087
20
43.243500000000004
30
0
0
VERTEX
8
0
10
1.905
20
43.243500000000004
30
0
0
VERTEX
8
0
10
1.8853843750000001
20
43.24039375
30
0
42
0.8541292147630184
0
VERTEX
8
0
10
1.905
20
43.1165
30
0
0
VERTEX
8
0
10
13.335
20
43.1165
30
0
0
SEQEND
0
POLYLINE
66
1
8
1_copper
10
0.0
20
0.0
30
0.0
70
1
0
VERTEX
8
0
10
6.836200000000001
20
6.6304125
30
0
0
VERTEX
8
0
10
6.836200000000001
20
7.2195875
30
0
0
VERTEX
8
0
10
6.4195875000000004
20
7.6362000000000005
30
0
0
VERTEX
8
0
10
5.8304125
20
7.6362000000000005
30
0
0
VERTEX
8
0
10
5.68250625
20
7.48829375
30
0
0
VERTEX
8
0
10
5.2705
20
7.9003000000000005
30
0
0
VERTEX
8
0
10
5.2705
20
18.288
30
0
0
VERTEX
8
0
10
5.269721875
20
18.292903125000002
30
0
42
0.1787130343549712
0
VERTEX
8
0
10
5.2519
20
18.332900000000002
30
0
0
VERTEX
8
0
10
1.9685000000000001
20
21.616300000000003
30
0
0
VERTEX
8
0
10
1.9685000000000001
20
22.8337
30
0
0
VERTEX
8
0
10
15.7743
20
36.639500000000005
30
0
0
VERTEX
8
0
10
22.733
20
36.639500000000005
30
0
0
VERTEX
8
0
10
22.737903125000003
20
36.640278125
30
0
42
0.1787130343549712
0
VERTEX
8
0
10
22.777900000000002
20
36.658100000000005
30
0
0
VERTEX
8
0
10
36.398640625
20
50.278840625
30
0
0
VERTEX
8
0
10
36.410725
20
50.268921875000004
30
0
42
0.1483360334497107
0
VERTEX
8
0
10
36.77215625
20
50.1396
30
0
0
VERTEX
8
0
10
38.157843750000005
20
50.1396
30
0
0
VERTEX
8
0
10
38.22241875
20
50.145959375000004
30
0
42
0.3303545576459427
0
VERTEX
8
0
10
38.779440625
20
50.70298125
30
0
0
VERTEX
8
0
10
38.782740625
20
50.7365
30
0
0
VERTEX
8
0
10
40.8305
20
50.7365
30
0
0
VERTEX
8
0
10
40.8305
20
50.352859375
30
0
0
VERTEX
8
0
10
41.462859375
20
49.7205
30
0
0
VERTEX
8
0
10
42.357140625
20
49.7205
30
0
0
VERTEX
8
0
10
42.9895
20
50.352859375
30
0
0
VERTEX
8
0
10
42.9895
20
51.247140625
30
0
0
VERTEX
8
0
10
42.357140625
20
51.8795
30
0
0
VERTEX
8
0
10
41.462859375
20
51.8795
30
0
0
VERTEX
8
0
10
40.8305
20
51.247140625
30
0
0
VERTEX
8
0
10
40.8305
20
50.8635
30
0
0
VERTEX
8
0
10
38.782740625
20
50.8635
30
0
0
VERTEX
8
0
10
38.779440625
20
50.89701875
30
0
42
0.3578051432831595
0
VERTEX
8
0
10
38.157843750000005
20
51.4604
30
0
0
VERTEX
8
0
10
36.77215625
20
51.4604
30
0
0
VERTEX
8
0
10
36.707581250000004
20
51.454040625000005
30
0
42
0.5664927627301197
0
VERTEX
8
0
10
36.273521875
20
50.406125
30
0
0
VERTEX
8
0
10
36.306337500000005
20
50.3661375
30
0
0
VERTEX
8
0
10
22.7067
20
36.7665
30
0
0
VERTEX
8
0
10
15.748000000000001
20
36.7665
30
0
0
VERTEX
8
0
10
15.743096875
20
36.765721875000004
30
0
42
0.1787130343549712
0
VERTEX
8
0
10
15.703100000000001
20
36.7479
30
0
0
VERTEX
8
0
10
1.8601
20
22.9049
30
0
0
VERTEX
8
0
10
1.857184375
20
22.9008875
30
0
42
0.17873043370239752
0
VERTEX
8
0
10
1.8415000000000001
20
22.86
30
0
0
VERTEX
8
0
10
1.8415000000000001
20
21.59
30
0
0
VERTEX
8
0
10
1.842278125
20
21.585096875
30
0
42
0.1787130343549712
0
VERTEX
8
0
10
1.8601
20
21.5451
30
0
0
VERTEX
8
0
10
5.1435
20
18.2617
30
0
0
VERTEX
8
0
10
5.1435
20
7.8740000000000006
30
0
0
VERTEX
8
0
10
5.1442781250000005
20
7.869096875
30
0
42
0.1787130343549712
0
VERTEX
8
0
10
5.162100000000001
20
7.8291
30
0
0
VERTEX
8
0
10
5.59270625
20
7.39849375
30
0
0
VERTEX
8
0
10
5.4138
20
7.2195875
30
0
0
VERTEX
8
0
10
5.4138
20
6.6304125
30
0
0
VERTEX
8
0
10
5.8304125
20
6.2138
30
0
0
VERTEX
8
0
10
6.4195875000000004
20
6.2138
30
0
0
SEQEND
0
POLYLINE
66
1
8
16_copper
10
0.0
20
0.0
30
0.0
70
1
0
VERTEX
8
0
10
42.9895
20
50.352859375
30
0
0
VERTEX
8
0
10
42.9895
20
51.247140625
30
0
0
VERTEX
8
0
10
42.357140625
20
51.8795
30
0
0
VERTEX
8
0
10
41.462859375
20
51.8795
30
0
0
VERTEX
8
0
10
40.8305
20
51.247140625
30
0
0
VERTEX
8
0
10
40.8305
20
50.352859375
30
0
0
VERTEX
8
0
10
41.462859375
20
49.7205
30
0
0
VERTEX
8
0
10
42.357140625
20
49.7205
30
0
0
SEQEND
0
POLYLINE
66
1
8
16_copper
10
0.0
20
0.0
30
0.0
70
1
0
VERTEX
8
0
10
38.22241875
20
50.145959375000004
30
0
42
0.9063462356499619
0
VERTEX
8
0
10
38.157843750000005
20
51.4604
30
0
0
VERTEX
8
0
10
36.77215625
20
51.4604
30
0
0
VERTEX
8
0
10
36.707581250000004
20
51.454040625000005
30
0
42
0.9063462356499619
0
VERTEX
8
0
10
36.77215625
20
50.1396
30
0
0
VERTEX
8
0
10
38.157843750000005
20
50.1396
30
0
0
SEQEND
0
POLYLINE
66
1
8
16_copper
10
0.0
20
0.0
30
0.0
70
1
0
VERTEX
8
0
10
6.836200000000001
20
6.6304125
30
0
0
VERTEX
8
0
10
6.836200000000001
20
7.2195875
30
0
0
VERTEX
8
0
10
6.4195875000000004
20
7.6362000000000005
30
0
0
VERTEX
8
0
10
5.8304125
20
7.6362000000000005
30
0
0
VERTEX
8
0
10
5.4138
20
7.2195875
30
0
0
VERTEX
8
0
10
5.4138
20
6.6304125
30
0
0
VERTEX
8
0
10
5.8304125
20
6.2138
30
0
0
VERTEX
8
0
10
6.4195875000000004
20
6.2138
30
0
0
SEQEND
0
POLYLINE
66
1
8
1_copper
10
0.0
20
0.0
30
0.0
70
1
0
VERTEX
8
0
10
42.9895
20
46.542859375
30
0
0
VERTEX
8
0
10
42.9895
20
47.437140625000005
30
0
0
VERTEX
8
0
10
42.357140625
20
48.069500000000005
30
0
0
VERTEX
8
0
10
41.462859375
20
48.069500000000005
30
0
0
VERTEX
8
0
10
40.8305
20
47.437140625000005
30
0
0
VERTEX
8
0
10
40.8305
20
46.542859375
30
0
0
VERTEX
8
0
10
41.462859375
20
45.9105
30
0
0
VERTEX
8
0
10
42.357140625
20
45.9105
30
0
0
SEQEND
0
POLYLINE
66
1
8
1_copper
10
0.0
20
0.0
30
0.0
70
1
0
VERTEX
8
0
10
15.498903125
20
5.906278125
30
0
42
0.1787130343549712
0
VERTEX
8
0
10
15.5389
20
5.9241
30
0
0
VERTEX
8
0
10
21.654400000000003
20
12.0396
30
0
0
VERTEX
8
0
10
22.91784375
20
12.0396
30
0
0
VERTEX
8
0
10
22.98241875
20
12.045959375
30
0
42
0.9063462356499619
0
VERTEX
8
0
10
22.91784375
20
13.3604
30
0
0
VERTEX
8
0
10
21.53215625
20
13.3604
30
0
0
VERTEX
8
0
10
21.467581250000002
20
13.354040625000001
30
0
42
0.8626046433002116
0
VERTEX
8
0
10
21.467581250000002
20
12.045959375
30
0
0
VERTEX
8
0
10
21.479940625
20
12.044740625000001
30
0
0
VERTEX
8
0
10
15.4677
20
6.032500000000001
30
0
0
VERTEX
8
0
10
5.7413
20
6.032500000000001
30
0
0
VERTEX
8
0
10
5.016500000000001
20
6.757300000000001
30
0
0
VERTEX
8
0
10
5.016500000000001
20
13.462000000000002
30
0
0
VERTEX
8
0
10
5.0157218750000006
20
13.466903125
30
0
42
0.1787130343549712
0
VERTEX
8
0
10
4.9979000000000005
20
13.5069
30
0
0
VERTEX
8
0
10
1.9685000000000001
20
16.5363
30
0
0
VERTEX
8
0
10
1.9685000000000001
20
17.78
30
0
0
VERTEX
8
0
10
1.96539375
20
17.799615625
30
0
42
0.8541292147630184
0
VERTEX
8
0
10
1.8415000000000001
20
17.78
30
0
0
VERTEX
8
0
10
1.8415000000000001
20
16.51
30
0
0
VERTEX
8
0
10
1.842278125
20
16.505096875
30
0
42
0.1787130343549712
0
VERTEX
8
0
10
1.8601
20
16.4651
30
0
0
VERTEX
8
0
10
4.8895
20
13.4357
30
0
0
VERTEX
8
0
10
4.8895
20
6.731000000000001
30
0
0
VERTEX
8
0
10
4.890278125
20
6.7260968750000005
30
0
42
0.1787130343549712
0
VERTEX
8
0
10
4.9081
20
6.686100000000001
30
0
0
VERTEX
8
0
10
5.670100000000001
20
5.9241
30
0
0
VERTEX
8
0
10
5.674112500000001
20
5.921184375
30
0
42
0.17873043370239752
0
VERTEX
8
0
10
5.715
20
5.9055
30
0
0
VERTEX
8
0
10
15.494000000000002
20
5.9055
30
0
0
SEQEND
0
POLYLINE
66
1
8
16_copper
10
0.0
20
0.0
30
0.0
70
1
0
VERTEX
8
0
10
22.98241875
20
12.045959375
30
0
42
0.9063462356499619
0
VERTEX
8
0
10
22.91784375
20
13.3604
30
0
0
VERTEX
8
0
10
21.654400000000003
20
13.3604
30
0
0
VERTEX
8
0
10
20.7645
20
14.250300000000001
30
0
0
VERTEX
8
0
10
20.7645
20
30.8347
30
0
0
VERTEX
8
0
10
21.235300000000002
20
31.305500000000002
30
0
0
VERTEX
8
0
10
23.495
20
31.305500000000002
30
0
0
VERTEX
8
0
10
23.499903125
20
31.306278125000002
30
0
42
0.1787130343549712
0
VERTEX
8
0
10
23.5399
20
31.3241
30
0
0
VERTEX
8
0
10
36.2213
20
44.005500000000005
30
0
0
VERTEX
8
0
10
37.719
20
44.005500000000005
30
0
0
VERTEX
8
0
10
37.723903125
20
44.006278125
30
0
42
0.1787130343549712
0
VERTEX
8
0
10
37.7639
20
44.024100000000004
30
0
0
VERTEX
8
0
10
40.6663
20
46.926500000000004
30
0
0
VERTEX
8
0
10
40.8305
20
46.926500000000004
30
0
0
VERTEX
8
0
10
40.8305
20
46.542859375
30
0
0
VERTEX
8
0
10
41.462859375
20
45.9105
30
0
0
VERTEX
8
0
10
42.357140625
20
45.9105
30
0
0
VERTEX
8
0
10
42.9895
20
46.542859375
30
0
0
VERTEX
8
0
10
42.9895
20
47.437140625000005
30
0
0
VERTEX
8
0
10
42.357140625
20
48.069500000000005
30
0
0
VERTEX
8
0
10
41.462859375
20
48.069500000000005
30
0
0
VERTEX
8
0
10
40.8305
20
47.437140625000005
30
0
0
VERTEX
8
0
10
40.8305
20
47.0535
30
0
0
VERTEX
8
0
10
40.64
20
47.0535
30
0
0
VERTEX
8
0
10
40.635096875
20
47.052721875
30
0
42
0.1787130343549712
0
VERTEX
8
0
10
40.5951
20
47.0349
30
0
0
VERTEX
8
0
10
37.6927
20
44.1325
30
0
0
VERTEX
8
0
10
36.195
20
44.1325
30
0
0
VERTEX
8
0
10
36.190096875
20
44.131721875000004
30
0
42
0.1787130343549712
0
VERTEX
8
0
10
36.1501
20
44.1139
30
0
0
VERTEX
8
0
10
23.468700000000002
20
31.4325
30
0
0
VERTEX
8
0
10
21.209
20
31.4325
30
0
0
VERTEX
8
0
10
21.204096875
20
31.431721875
30
0
42
0.1787130343549712
0
VERTEX
8
0
10
21.1641
20
31.4139
30
0
0
VERTEX
8
0
10
20.656100000000002
20
30.905900000000003
30
0
0
VERTEX
8
0
10
20.653184375000002
20
30.9018875
30
0
42
0.17873043370239752
0
VERTEX
8
0
10
20.6375
20
30.861
30
0
0
VERTEX
8
0
10
20.6375
20
14.224
30
0
0
VERTEX
8
0
10
20.638278125
20
14.219096875
30
0
42
0.1787130343549712
0
VERTEX
8
0
10
20.656100000000002
20
14.1791
30
0
0
VERTEX
8
0
10
21.479940625
20
13.355259375000001
30
0
0
VERTEX
8
0
10
21.467581250000002
20
13.354040625000001
30
0
42
0.9063462356499619
0
VERTEX
8
0
10
21.53215625
20
12.0396
30
0
0
VERTEX
8
0
10
22.91784375
20
12.0396
30
0
0
SEQEND
0
CIRCLE
8
drills_PTH
10
9.525
20
3.125
30
0
40
1.1500000000000001
0
CIRCLE
8
drills_PTH
10
16.275000000000002
20
3.9250000000000003
30
0
40
1.1500000000000001
0
CIRCLE
8
drills_PTH
10
2.725
20
3.9250000000000003
30
0
40
1.1500000000000001
0
CIRCLE
8
drills_PTH
10
41.910000000000004
20
50.800000000000004
30
0
40
0.6604
0
CIRCLE
8
drills_PTH
10
41.910000000000004
20
46.99
30
0
40
0.6604
0
CIRCLE
8
drills_PTH
10
10.825000000000001
20
6.925000000000001
30
0
40
0.45
0
CIRCLE
8
drills_PTH
10
12.925
20
6.925000000000001
30
0
40
0.45
0
CIRCLE
8
drills_PTH
10
6.125
20
6.925000000000001
30
0
40
0.45
0
CIRCLE
8
drills_PTH
10
6.125
20
9.425
30
0
40
0.45
0
CIRCLE
8
drills_PTH
10
12.925
20
9.375
30
0
40
0.45
0
CIRCLE
8
drills_PTH
10
8.225
20
6.925000000000001
30
0
40
0.45
0
CIRCLE
8
drills_PTH
10
37.465
20
5.08
30
0
40
0.40640000000000004
0
CIRCLE
8
drills_PTH
10
22.225
20
25.400000000000002
30
0
40
0.40640000000000004
0
CIRCLE
8
drills_PTH
10
37.465
20
2.54
30
0
40
0.40640000000000004
0
CIRCLE
8
drills_PTH
10
22.225
20
2.54
30
0
40
0.40640000000000004
0
CIRCLE
8
drills_PTH
10
22.225
20
5.08
30
0
40
0.40640000000000004
0
CIRCLE
8
drills_PTH
10
22.225
20
7.62
30
0
40
0.40640000000000004
0
CIRCLE
8
drills_PTH
10
22.225
20
10.16
30
0
40
0.40640000000000004
0
CIRCLE
8
drills_PTH
10
22.225
20
12.700000000000001
30
0
40
0.40640000000000004
0
CIRCLE
8
drills_PTH
10
22.225
20
15.24
30
0
40
0.40640000000000004
0
CIRCLE
8
drills_PTH
10
22.225
20
17.78
30
0
40
0.40640000000000004
0
CIRCLE
8
drills_PTH
10
22.225
20
20.32
30
0
40
0.40640000000000004
0
CIRCLE
8
drills_PTH
10
22.225
20
22.86
30
0
40
0.40640000000000004
0
CIRCLE
8
drills_PTH
10
22.225
20
40.64
30
0
40
0.40640000000000004
0
CIRCLE
8
drills_PTH
10
37.465
20
7.62
30
0
40
0.40640000000000004
0
CIRCLE
8
drills_PTH
10
37.465
20
10.16
30
0
40
0.40640000000000004
0
CIRCLE
8
drills_PTH
10
37.465
20
12.700000000000001
30
0
40
0.40640000000000004
0
CIRCLE
8
drills_PTH
10
37.465
20
15.24
30
0
40
0.40640000000000004
0
CIRCLE
8
drills_PTH
10
37.465
20
17.78
30
0
40
0.40640000000000004
0
CIRCLE
8
drills_PTH
10
37.465
20
20.32
30
0
40
0.40640000000000004
0
CIRCLE
8
drills_PTH
10
37.465
20
22.86
30
0
40
0.40640000000000004
0
CIRCLE
8
drills_PTH
10
37.465
20
25.400000000000002
30
0
40
0.40640000000000004
0
CIRCLE
8
drills_PTH
10
37.465
20
27.94
30
0
40
0.40640000000000004
0
CIRCLE
8
drills_PTH
10
37.465
20
30.48
30
0
40
0.40640000000000004
0
CIRCLE
8
drills_PTH
10
37.465
20
33.02
30
0
40
0.40640000000000004
0
CIRCLE
8
drills_PTH
10
37.465
20
35.56
30
0
40
0.40640000000000004
0
CIRCLE
8
drills_PTH
10
37.465
20
38.1
30
0
40
0.40640000000000004
0
CIRCLE
8
drills_PTH
10
37.465
20
40.64
30
0
40
0.40640000000000004
0
CIRCLE
8
drills_PTH
10
37.465
20
43.18
30
0
40
0.40640000000000004
0
CIRCLE
8
drills_PTH
10
37.465
20
45.72
30
0
40
0.40640000000000004
0
CIRCLE
8
drills_PTH
10
45.03
20
18.075
30
0
40
0.40640000000000004
0
CIRCLE
8
drills_PTH
10
52.650000000000006
20
28.235000000000003
30
0
40
0.40640000000000004
0
CIRCLE
8
drills_PTH
10
52.650000000000006
20
25.695
30
0
40
0.40640000000000004
0
CIRCLE
8
drills_PTH
10
52.650000000000006
20
23.155
30
0
40
0.40640000000000004
0
CIRCLE
8
drills_PTH
10
52.650000000000006
20
20.615000000000002
30
0
40
0.40640000000000004
0
CIRCLE
8
drills_PTH
10
52.650000000000006
20
18.075
30
0
40
0.40640000000000004
0
CIRCLE
8
drills_PTH
10
52.650000000000006
20
15.535
30
0
40
0.40640000000000004
0
CIRCLE
8
drills_PTH
10
52.650000000000006
20
12.995000000000001
30
0
40
0.40640000000000004
0
CIRCLE
8
drills_PTH
10
52.650000000000006
20
10.455
30
0
40
0.40640000000000004
0
CIRCLE
8
drills_PTH
10
45.03
20
10.455
30
0
40
0.40640000000000004
0
CIRCLE
8
drills_PTH
10
45.03
20
12.995000000000001
30
0
40
0.40640000000000004
0
CIRCLE
8
drills_PTH
10
45.03
20
20.615000000000002
30
0
40
0.40640000000000004
0
CIRCLE
8
drills_PTH
10
45.03
20
23.155
30
0
40
0.40640000000000004
0
CIRCLE
8
drills_PTH
10
45.03
20
15.535
30
0
40
0.40640000000000004
0
CIRCLE
8
drills_PTH
10
22.225
20
27.94
30
0
40
0.40640000000000004
0
CIRCLE
8
drills_PTH
10
45.03
20
25.695
30
0
40
0.40640000000000004
0
CIRCLE
8
drills_PTH
10
45.03
20
28.235000000000003
30
0
40
0.40640000000000004
0
CIRCLE
8
drills_PTH
10
37.465
20
50.800000000000004
30
0
40
0.40640000000000004
0
CIRCLE
8
drills_PTH
10
37.465
20
48.260000000000005
30
0
40
0.40640000000000004
0
CIRCLE
8
drills_PTH
10
22.225
20
50.800000000000004
30
0
40
0.40640000000000004
0
CIRCLE
8
drills_PTH
10
22.225
20
48.260000000000005
30
0
40
0.40640000000000004
0
CIRCLE
8
drills_PTH
10
22.225
20
45.72
30
0
40
0.40640000000000004
0
CIRCLE
8
drills_PTH
10
22.225
20
43.18
30
0
40
0.40640000000000004
0
CIRCLE
8
drills_PTH
10
22.225
20
38.1
30
0
40
0.40640000000000004
0
CIRCLE
8
drills_PTH
10
22.225
20
35.56
30
0
40
0.40640000000000004
0
CIRCLE
8
drills_PTH
10
22.225
20
33.02
30
0
40
0.40640000000000004
0
CIRCLE
8
drills_PTH
10
22.225
20
30.48
30
0
40
0.40640000000000004
0
CIRCLE
8
drills_PTH
10
1.905
20
48.260000000000005
30
0
40
0.4
0
CIRCLE
8
drills_PTH
10
17.145
20
48.260000000000005
30
0
40
0.4
0
CIRCLE
8
drills_PTH
10
1.905
20
50.800000000000004
30
0
40
0.4
0
CIRCLE
8
drills_PTH
10
1.905
20
45.72
30
0
40
0.4
0
CIRCLE
8
drills_PTH
10
1.905
20
43.18
30
0
40
0.4
0
CIRCLE
8
drills_PTH
10
1.905
20
40.64
30
0
40
0.4
0
CIRCLE
8
drills_PTH
10
1.905
20
38.1
30
0
40
0.4
0
CIRCLE
8
drills_PTH
10
1.905
20
35.56
30
0
40
0.4
0
CIRCLE
8
drills_PTH
10
1.905
20
33.02
30
0
40
0.4
0
CIRCLE
8
drills_PTH
10
1.905
20
30.48
30
0
40
0.4
0
CIRCLE
8
drills_PTH
10
1.905
20
27.94
30
0
40
0.4
0
CIRCLE
8
drills_PTH
10
1.905
20
25.400000000000002
30
0
40
0.4
0
CIRCLE
8
drills_PTH
10
1.905
20
22.86
30
0
40
0.4
0
CIRCLE
8
drills_PTH
10
1.905
20
20.32
30
0
40
0.4
0
CIRCLE
8
drills_PTH
10
1.905
20
17.78
30
0
40
0.4
0
CIRCLE
8
drills_PTH
10
1.905
20
15.24
30
0
40
0.4
0
CIRCLE
8
drills_PTH
10
17.145
20
17.78
30
0
40
0.4
0
CIRCLE
8
drills_PTH
10
17.145
20
50.800000000000004
30
0
40
0.4
0
CIRCLE
8
drills_PTH
10
17.145
20
45.72
30
0
40
0.4
0
CIRCLE
8
drills_PTH
10
17.145
20
43.18
30
0
40
0.4
0
CIRCLE
8
drills_PTH
10
17.145
20
40.64
30
0
40
0.4
0
CIRCLE
8
drills_PTH
10
17.145
20
38.1
30
0
40
0.4
0
CIRCLE
8
drills_PTH
10
17.145
20
35.56
30
0
40
0.4
0
CIRCLE
8
drills_PTH
10
17.145
20
33.02
30
0
40
0.4
0
CIRCLE
8
drills_PTH
10
17.145
20
30.48
30
0
40
0.4
0
CIRCLE
8
drills_PTH
10
17.145
20
27.94
30
0
40
0.4
0
CIRCLE
8
drills_PTH
10
17.145
20
25.400000000000002
30
0
40
0.4
0
CIRCLE
8
drills_PTH
10
17.145
20
22.86
30
0
40
0.4
0
CIRCLE
8
drills_PTH
10
17.145
20
20.32
30
0
40
0.4
0
CIRCLE
8
drills_PTH
10
17.145
20
15.24
30
0
40
0.4
0
CIRCLE
8
drills_via_1_16
10
26.924000000000003
20
35.941
30
0
40
0.1524
0
CIRCLE
8
drills_via_1_16
10
46.482
20
22.225
30
0
40
0.1524
0
CIRCLE
8
drills_via_1_16
10
50.292
20
21.59
30
0
40
0.1524
0
ENDSEC
0
EOF