G04 EAGLE Gerber RS-274X export*
G75*
%MOMM*%
%FSLAX34Y34*%
%LPD*%
%INTop Copper*%
%IPPOS*%
%AMOC8*
5,1,8,0,0,1.08239X$1,22.5*%
G01*
%ADD10R,1.308000X1.308000*%
%ADD11C,1.308000*%
%ADD12C,1.320800*%
%ADD13C,3.500000*%
%ADD14P,1.539592X8X202.500000*%
%ADD15P,2.336880X8X112.500000*%
%ADD16C,0.127000*%
%ADD17C,0.609600*%


D10*
X19050Y508000D03*
D11*
X19050Y482600D03*
X19050Y457200D03*
X19050Y431800D03*
X19050Y406400D03*
X19050Y381000D03*
X19050Y355600D03*
X19050Y330200D03*
X19050Y304800D03*
X19050Y279400D03*
X19050Y254000D03*
X19050Y228600D03*
X19050Y203200D03*
X19050Y177800D03*
X19050Y152400D03*
X171450Y152400D03*
X171450Y177800D03*
X171450Y203200D03*
X171450Y228600D03*
X171450Y254000D03*
X171450Y279400D03*
X171450Y304800D03*
X171450Y330200D03*
X171450Y355600D03*
X171450Y381000D03*
X171450Y406400D03*
X171450Y431800D03*
X171450Y457200D03*
X171450Y482600D03*
X171450Y508000D03*
D12*
X215646Y508000D02*
X228854Y508000D01*
X228854Y482600D02*
X215646Y482600D01*
X215646Y457200D02*
X228854Y457200D01*
X228854Y431800D02*
X215646Y431800D01*
X215646Y406400D02*
X228854Y406400D01*
X228854Y381000D02*
X215646Y381000D01*
X215646Y355600D02*
X228854Y355600D01*
X228854Y330200D02*
X215646Y330200D01*
X215646Y304800D02*
X228854Y304800D01*
X228854Y279400D02*
X215646Y279400D01*
X215646Y254000D02*
X228854Y254000D01*
X228854Y228600D02*
X215646Y228600D01*
X215646Y203200D02*
X228854Y203200D01*
X228854Y177800D02*
X215646Y177800D01*
X215646Y152400D02*
X228854Y152400D01*
X228854Y127000D02*
X215646Y127000D01*
X215646Y101600D02*
X228854Y101600D01*
X228854Y76200D02*
X215646Y76200D01*
X215646Y50800D02*
X228854Y50800D01*
X228854Y25400D02*
X215646Y25400D01*
X368046Y25400D02*
X381254Y25400D01*
X381254Y50800D02*
X368046Y50800D01*
X368046Y76200D02*
X381254Y76200D01*
X381254Y101600D02*
X368046Y101600D01*
X368046Y127000D02*
X381254Y127000D01*
X381254Y152400D02*
X368046Y152400D01*
X368046Y177800D02*
X381254Y177800D01*
X381254Y203200D02*
X368046Y203200D01*
X368046Y228600D02*
X381254Y228600D01*
X381254Y254000D02*
X368046Y254000D01*
X368046Y279400D02*
X381254Y279400D01*
X381254Y304800D02*
X368046Y304800D01*
X368046Y330200D02*
X381254Y330200D01*
X381254Y355600D02*
X368046Y355600D01*
X368046Y381000D02*
X381254Y381000D01*
X381254Y406400D02*
X368046Y406400D01*
X368046Y431800D02*
X381254Y431800D01*
X381254Y457200D02*
X368046Y457200D01*
X368046Y482600D02*
X381254Y482600D01*
X381254Y508000D02*
X368046Y508000D01*
D13*
X27250Y39250D03*
X162750Y39250D03*
X95250Y31250D03*
D14*
X82250Y69250D03*
X108250Y69250D03*
X129250Y69250D03*
X61250Y69250D03*
X61250Y94250D03*
X129250Y93750D03*
D15*
X419100Y508000D03*
X419100Y469900D03*
D12*
X443696Y282350D02*
X456904Y282350D01*
X456904Y256950D02*
X443696Y256950D01*
X443696Y180750D02*
X456904Y180750D01*
X456904Y155350D02*
X443696Y155350D01*
X443696Y231550D02*
X456904Y231550D01*
X456904Y206150D02*
X443696Y206150D01*
X443696Y129950D02*
X456904Y129950D01*
X456904Y104550D02*
X443696Y104550D01*
X519896Y104550D02*
X533104Y104550D01*
X533104Y129950D02*
X519896Y129950D01*
X519896Y155350D02*
X533104Y155350D01*
X533104Y180750D02*
X519896Y180750D01*
X519896Y206150D02*
X533104Y206150D01*
X533104Y231550D02*
X519896Y231550D01*
X519896Y256950D02*
X533104Y256950D01*
X533104Y282350D02*
X519896Y282350D01*
D16*
X171450Y254000D02*
X171450Y241300D01*
X129540Y199390D01*
X129540Y93980D01*
X129250Y93750D01*
X171450Y266700D02*
X171450Y279400D01*
X171450Y266700D02*
X109220Y204470D01*
X109220Y69850D01*
X108250Y69250D01*
X374650Y429260D02*
X374650Y431800D01*
X374650Y429260D02*
X449580Y354330D01*
X449580Y283210D01*
X450300Y282350D01*
X374650Y476250D02*
X374650Y482600D01*
X374650Y476250D02*
X359410Y461010D01*
X359410Y427990D01*
X372110Y415290D01*
X384810Y415290D01*
X389890Y410210D01*
X389890Y351790D01*
X377190Y339090D01*
X364490Y339090D01*
X359410Y334010D01*
X359410Y326390D01*
X372110Y313690D01*
X393700Y313690D01*
X449580Y257810D01*
X450300Y256950D01*
X275590Y359410D02*
X269240Y359410D01*
X275590Y359410D02*
X372110Y262890D01*
X419100Y262890D01*
X449580Y232410D01*
X450300Y231550D01*
D17*
X269240Y359410D03*
D16*
X279400Y50800D02*
X222250Y50800D01*
X279400Y50800D02*
X369570Y140970D01*
X454660Y140970D01*
X466090Y152400D01*
X466090Y165100D01*
X450850Y180340D01*
X450300Y180750D01*
X326390Y101600D02*
X222250Y101600D01*
X326390Y101600D02*
X368300Y143510D01*
X438150Y143510D01*
X449580Y154940D01*
X450300Y155350D01*
X383540Y330200D02*
X374650Y330200D01*
X383540Y330200D02*
X447040Y266700D01*
X459740Y266700D01*
X510540Y215900D01*
X510540Y203200D01*
X523240Y190500D01*
X535940Y190500D01*
X542290Y184150D01*
X542290Y177800D01*
X529590Y165100D01*
X485140Y165100D01*
X450850Y130810D01*
X450300Y129950D01*
X464820Y222250D02*
X381000Y222250D01*
X374650Y228600D01*
D17*
X464820Y222250D03*
D16*
X468630Y181610D02*
X525780Y181610D01*
X468630Y181610D02*
X453390Y196850D01*
X381000Y196850D01*
X374650Y203200D01*
X525780Y181610D02*
X526500Y180750D01*
X254000Y330200D02*
X222250Y330200D01*
X254000Y330200D02*
X368300Y215900D01*
X502920Y215900D01*
D17*
X502920Y215900D03*
D16*
X203200Y355600D02*
X171450Y355600D01*
X203200Y355600D02*
X212090Y364490D01*
X332740Y364490D01*
X374650Y406400D01*
X222250Y406400D02*
X171450Y406400D01*
X222250Y431800D02*
X171450Y482600D01*
X374650Y508000D02*
X419100Y508000D01*
X19050Y228600D02*
X19050Y215900D01*
X52070Y182880D01*
X52070Y78740D01*
X60960Y69850D01*
X61250Y69250D01*
X368300Y508000D02*
X374650Y508000D01*
X368300Y508000D02*
X227330Y367030D01*
X157480Y367030D01*
X19050Y228600D01*
X19050Y177800D02*
X19050Y165100D01*
X49530Y134620D01*
X49530Y67310D01*
X57150Y59690D01*
X129540Y59690D02*
X154940Y59690D01*
X129540Y59690D02*
X57150Y59690D01*
X154940Y59690D02*
X222250Y127000D01*
X171450Y215900D02*
X171450Y228600D01*
X171450Y215900D02*
X138430Y182880D01*
X138430Y78740D01*
X129540Y69850D01*
X129250Y69250D01*
X129540Y68580D02*
X129540Y59690D01*
X129540Y68580D02*
X129250Y69250D01*
M02*
