G04 EAGLE Gerber RS-274X export*
G75*
%MOMM*%
%FSLAX34Y34*%
%LPD*%
%INBottom Copper*%
%IPPOS*%
%AMOC8*
5,1,8,0,0,1.08239X$1,22.5*%
G01*
%ADD10R,1.308000X1.308000*%
%ADD11C,1.308000*%
%ADD12C,1.320800*%
%ADD13C,3.500000*%
%ADD14P,1.539592X8X202.500000*%
%ADD15P,2.336880X8X112.500000*%
%ADD16C,0.127000*%
%ADD17C,0.609600*%


D10*
X19050Y508000D03*
D11*
X19050Y482600D03*
X19050Y457200D03*
X19050Y431800D03*
X19050Y406400D03*
X19050Y381000D03*
X19050Y355600D03*
X19050Y330200D03*
X19050Y304800D03*
X19050Y279400D03*
X19050Y254000D03*
X19050Y228600D03*
X19050Y203200D03*
X19050Y177800D03*
X19050Y152400D03*
X171450Y152400D03*
X171450Y177800D03*
X171450Y203200D03*
X171450Y228600D03*
X171450Y254000D03*
X171450Y279400D03*
X171450Y304800D03*
X171450Y330200D03*
X171450Y355600D03*
X171450Y381000D03*
X171450Y406400D03*
X171450Y431800D03*
X171450Y457200D03*
X171450Y482600D03*
X171450Y508000D03*
D12*
X215646Y508000D02*
X228854Y508000D01*
X228854Y482600D02*
X215646Y482600D01*
X215646Y457200D02*
X228854Y457200D01*
X228854Y431800D02*
X215646Y431800D01*
X215646Y406400D02*
X228854Y406400D01*
X228854Y381000D02*
X215646Y381000D01*
X215646Y355600D02*
X228854Y355600D01*
X228854Y330200D02*
X215646Y330200D01*
X215646Y304800D02*
X228854Y304800D01*
X228854Y279400D02*
X215646Y279400D01*
X215646Y254000D02*
X228854Y254000D01*
X228854Y228600D02*
X215646Y228600D01*
X215646Y203200D02*
X228854Y203200D01*
X228854Y177800D02*
X215646Y177800D01*
X215646Y152400D02*
X228854Y152400D01*
X228854Y127000D02*
X215646Y127000D01*
X215646Y101600D02*
X228854Y101600D01*
X228854Y76200D02*
X215646Y76200D01*
X215646Y50800D02*
X228854Y50800D01*
X228854Y25400D02*
X215646Y25400D01*
X368046Y25400D02*
X381254Y25400D01*
X381254Y50800D02*
X368046Y50800D01*
X368046Y76200D02*
X381254Y76200D01*
X381254Y101600D02*
X368046Y101600D01*
X368046Y127000D02*
X381254Y127000D01*
X381254Y152400D02*
X368046Y152400D01*
X368046Y177800D02*
X381254Y177800D01*
X381254Y203200D02*
X368046Y203200D01*
X368046Y228600D02*
X381254Y228600D01*
X381254Y254000D02*
X368046Y254000D01*
X368046Y279400D02*
X381254Y279400D01*
X381254Y304800D02*
X368046Y304800D01*
X368046Y330200D02*
X381254Y330200D01*
X381254Y355600D02*
X368046Y355600D01*
X368046Y381000D02*
X381254Y381000D01*
X381254Y406400D02*
X368046Y406400D01*
X368046Y431800D02*
X381254Y431800D01*
X381254Y457200D02*
X368046Y457200D01*
X368046Y482600D02*
X381254Y482600D01*
X381254Y508000D02*
X368046Y508000D01*
D13*
X27250Y39250D03*
X162750Y39250D03*
X95250Y31250D03*
D14*
X82250Y69250D03*
X108250Y69250D03*
X129250Y69250D03*
X61250Y69250D03*
X61250Y94250D03*
X129250Y93750D03*
D15*
X419100Y508000D03*
X419100Y469900D03*
D12*
X443696Y282350D02*
X456904Y282350D01*
X456904Y256950D02*
X443696Y256950D01*
X443696Y180750D02*
X456904Y180750D01*
X456904Y155350D02*
X443696Y155350D01*
X443696Y231550D02*
X456904Y231550D01*
X456904Y206150D02*
X443696Y206150D01*
X443696Y129950D02*
X456904Y129950D01*
X456904Y104550D02*
X443696Y104550D01*
X519896Y104550D02*
X533104Y104550D01*
X533104Y129950D02*
X519896Y129950D01*
X519896Y155350D02*
X533104Y155350D01*
X533104Y180750D02*
X519896Y180750D01*
X519896Y206150D02*
X533104Y206150D01*
X533104Y231550D02*
X519896Y231550D01*
X519896Y256950D02*
X533104Y256950D01*
X533104Y282350D02*
X519896Y282350D01*
D16*
X222250Y505460D02*
X222250Y508000D01*
X222250Y505460D02*
X269240Y458470D01*
X269240Y359410D01*
D17*
X269240Y359410D03*
D16*
X374650Y25400D02*
X389890Y25400D01*
X466090Y101600D01*
X466090Y190500D01*
X450850Y205740D01*
X450300Y206150D01*
X374650Y298450D02*
X374650Y304800D01*
X374650Y298450D02*
X359410Y283210D01*
X359410Y199390D01*
X372110Y186690D01*
X384810Y186690D01*
X434340Y137160D01*
X434340Y120650D01*
X449580Y105410D01*
X450300Y104550D01*
X383540Y279400D02*
X374650Y279400D01*
X383540Y279400D02*
X440690Y222250D01*
X457200Y222250D01*
X510540Y168910D01*
X510540Y152400D01*
X523240Y139700D01*
X535940Y139700D01*
X542290Y133350D01*
X542290Y120650D01*
X527050Y105410D01*
X526500Y104550D01*
X525780Y130810D02*
X525780Y133350D01*
X468630Y190500D01*
X468630Y207010D01*
X455930Y219710D01*
X408940Y219710D01*
X374650Y254000D01*
X525780Y130810D02*
X526500Y129950D01*
X525780Y156210D02*
X525780Y161290D01*
X464820Y222250D01*
X525780Y156210D02*
X526500Y155350D01*
D17*
X464820Y222250D03*
D16*
X502920Y215900D02*
X516890Y215900D01*
X525780Y207010D01*
X526500Y206150D01*
D17*
X502920Y215900D03*
D16*
X527050Y232410D02*
X527050Y238760D01*
X544830Y256540D01*
X544830Y287020D01*
X513080Y318770D01*
X243840Y318770D01*
X229870Y304800D01*
X222250Y304800D01*
X526500Y231550D02*
X527050Y232410D01*
X527050Y257810D02*
X527050Y264160D01*
X542290Y279400D01*
X542290Y285750D01*
X511810Y316230D01*
X302260Y316230D01*
X265430Y279400D01*
X222250Y279400D01*
X526500Y256950D02*
X527050Y257810D01*
X304800Y254000D02*
X222250Y254000D01*
X304800Y254000D02*
X364490Y313690D01*
X495300Y313690D01*
X525780Y283210D01*
X526500Y282350D01*
X177800Y304800D02*
X171450Y304800D01*
X177800Y304800D02*
X219710Y346710D01*
X264160Y346710D01*
X374650Y457200D01*
X171450Y339090D02*
X171450Y330200D01*
X171450Y339090D02*
X207010Y374650D01*
X207010Y441960D01*
X222250Y457200D01*
X171450Y381000D02*
X171450Y372110D01*
X154940Y355600D01*
X154940Y143510D01*
X222250Y76200D01*
X171450Y419100D02*
X171450Y431800D01*
X171450Y419100D02*
X180340Y410210D01*
X180340Y377190D01*
X157480Y354330D01*
X157480Y147320D01*
X219710Y85090D01*
X340360Y85090D01*
X374650Y50800D01*
X171450Y444500D02*
X171450Y457200D01*
X171450Y444500D02*
X182880Y433070D01*
X182880Y354330D01*
X160020Y331470D01*
X160020Y299720D01*
X171450Y288290D01*
X180340Y288290D01*
X201930Y266700D01*
X201930Y124460D01*
X215900Y110490D01*
X340360Y110490D01*
X374650Y76200D01*
X203200Y508000D02*
X171450Y508000D01*
X203200Y508000D02*
X219710Y491490D01*
X232410Y491490D01*
X237490Y486410D01*
X237490Y377190D01*
X224790Y364490D01*
X212090Y364490D01*
X180340Y332740D01*
X180340Y326390D01*
X162560Y308610D01*
X162560Y300990D01*
X172720Y290830D01*
X181610Y290830D01*
X204470Y267970D01*
X204470Y125730D01*
X217170Y113030D01*
X363220Y113030D01*
X374650Y101600D01*
X19050Y495300D02*
X19050Y508000D01*
X19050Y495300D02*
X10160Y486410D01*
X10160Y275590D01*
X207010Y78740D01*
X207010Y72390D01*
X219710Y59690D01*
X346710Y59690D01*
X364490Y41910D01*
X384810Y41910D01*
X389890Y46990D01*
X389890Y111760D01*
X374650Y127000D01*
X133350Y431800D02*
X19050Y431800D01*
X133350Y431800D02*
X184150Y482600D01*
X222250Y482600D01*
X406400Y469900D02*
X419100Y469900D01*
X406400Y469900D02*
X377190Y440690D01*
X361950Y440690D01*
X234950Y313690D01*
X212090Y313690D01*
X207010Y308610D01*
X207010Y142240D01*
X222250Y127000D01*
M02*
