M48
;GenerationSoftware,Autodesk,EAGLE,9.6.2*%
;CreationDate,2021-09-18T00:55:56Z*%
FMAT,2
ICI,OFF
METRIC,TZ,000.000
T7C0.305
T6C0.800
T5C0.813
T4C0.900
T3C1.321
T2C2.300
%
G90
M71
T2
X2725Y3925
X16275Y3925
X9525Y3125
T3
X41910Y50800
X41910Y46990
T4
X8225Y6925
X10825Y6925
X12925Y6925
X6125Y6925
X6125Y9425
X12925Y9375
T5
X37465Y33020
X37465Y43180
X37465Y40640
X37465Y38100
X37465Y35560
X22225Y5080
X37465Y30480
X37465Y27940
X37465Y25400
X37465Y22860
X37465Y20320
X37465Y17780
X37465Y15240
X37465Y12700
X37465Y10160
X37465Y7620
X37465Y5080
X37465Y2540
X22225Y2540
X22225Y7620
X45030Y12995
X52650Y28235
X52650Y25695
X52650Y23155
X52650Y20615
X52650Y18075
X52650Y15535
X52650Y12995
X52650Y10455
X45030Y10455
X37465Y45720
X45030Y20615
X45030Y23155
X45030Y15535
X45030Y18075
X45030Y25695
X45030Y28235
X37465Y50800
X37465Y48260
X22225Y10160
X22225Y50800
X22225Y48260
X22225Y45720
X22225Y43180
X22225Y40640
X22225Y38100
X22225Y35560
X22225Y33020
X22225Y27940
X22225Y25400
X22225Y22860
X22225Y20320
X22225Y17780
X22225Y15240
X22225Y12700
X22225Y30480
T6
X1905Y15240
X1905Y17780
X1905Y20320
X1905Y22860
X1905Y25400
X1905Y27940
X1905Y30480
X1905Y33020
X1905Y35560
X1905Y38100
X1905Y40640
X1905Y43180
X1905Y45720
X1905Y48260
X1905Y50800
X17145Y33020
X17145Y17780
X17145Y50800
X17145Y48260
X17145Y45720
X17145Y43180
X17145Y40640
X17145Y38100
X17145Y35560
X17145Y30480
X17145Y27940
X17145Y25400
X17145Y22860
X17145Y20320
X17145Y15240
T7
X26924Y35941
X50292Y21590
X46482Y22225
M30